<?xml version="1.0" encoding="iso-8859-1"?>
<!-- Generator: Adobe Illustrator 19.0.0, SVG Export Plug-In . SVG Version: 6.00 Build 0)  -->
<svg version="1.1" id="Capa_1" xmlns="http://www.w3.org/2000/svg" xmlns:xlink="http://www.w3.org/1999/xlink" x="0px" y="0px"
	 viewBox="0 0 480 480" style="enable-background:new 0 0 480 480;" xml:space="preserve">
<g>
	<g>
		<path d="M256,152v-8c0.001-4.417-3.579-7.999-7.996-8c-0.001,0-0.003,0-0.004,0H131.676c17.735-19.703,16.14-50.053-3.564-67.789
			c-19.703-17.735-50.053-16.14-67.789,3.564c-16.536,18.37-16.418,46.295,0.272,64.525C30.743,139.373,8.037,164.505,8,194.516V280
			c-0.001,4.417,3.579,7.999,7.996,8c0.001,0,0.003,0,0.004,0h24v104H8c-4.417-0.001-7.999,3.579-8,7.996c0,0.001,0,0.003,0,0.004
			v72c-0.001,4.417,3.579,7.999,7.996,8c0.001,0,0.003,0,0.004,0h176c4.417,0.001,7.999-3.579,8-7.996c0-0.001,0-0.003,0-0.004v-72
			c0.001-4.417-3.579-7.999-7.996-8c-0.001,0-0.003,0-0.004,0h-32V184h96c4.417,0.001,7.999-3.579,8-7.996c0-0.001,0-0.003,0-0.004
			v-8h176v-16H256z M96,72c17.673,0,32,14.327,32,32s-14.327,32-32,32s-32-14.327-32-32C64.019,86.335,78.335,72.019,96,72z
			 M176,408v56H16v-56H176z M240,168h-96c-4.417-0.001-7.999,3.579-8,7.996c0,0.001,0,0.003,0,0.004v216h-32V272H88v120H56V184H40
			v88H24v-77.484c0.026-23.47,19.046-42.489,42.516-42.516H240V168z"/>
	</g>
</g>
<g>
	<g>
		<path d="M328.004,0c-0.001,0-0.003,0-0.004,0H192c-4.417-0.001-7.999,3.579-8,7.996c0,0.001,0,0.003,0,0.004v28l-28.797,21.602
			c-3.535,2.646-4.256,7.657-1.61,11.193c1.104,1.474,2.682,2.522,4.469,2.967L184,78.246V112c-0.001,4.417,3.579,7.999,7.996,8
			c0.001,0,0.003,0,0.004,0h136c4.417,0.001,7.999-3.579,8-7.996c0-0.001,0-0.003,0-0.004V8C336.001,3.583,332.421,0.001,328.004,0z
			 M320,104H200V72c-0.001-3.672-2.5-6.872-6.063-7.762l-15.688-3.922l18.547-13.918C198.813,44.89,200,42.518,200,40V16h120V104z"
			/>
	</g>
</g>
<g>
	<g>
		<path d="M290.344,34.344L256,68.688l-18.344-18.344l-11.312,11.312l24,24c1.498,1.503,3.534,2.346,5.656,2.344
			c2.122,0.002,4.158-0.841,5.656-2.344l40-40L290.344,34.344z"/>
	</g>
</g>
<g>
	<g>
		<path d="M366.347,390.84c12.65-12.342,12.899-32.602,0.557-45.251c-12.342-12.65-32.602-12.899-45.251-0.557
			c-12.65,12.342-12.899,32.602-0.557,45.251c0.183,0.188,0.369,0.374,0.557,0.557C310.62,398.27,304.004,410.699,304,424v48
			c-0.001,4.417,3.579,7.999,7.996,8c0.001,0,0.003,0,0.004,0h64c4.417,0.001,7.999-3.579,8-7.996c0-0.001,0-0.003,0-0.004v-48
			C383.996,410.699,377.38,398.27,366.347,390.84z M344,352c8.837,0,16,7.163,16,16s-7.163,16-16,16s-16-7.163-16-16
			C328.01,359.168,335.168,352.01,344,352z M368,464h-48v-40c0-13.255,10.745-24,24-24s24,10.745,24,24V464z"/>
	</g>
</g>
<g>
	<g>
		<path d="M462.347,390.84c12.65-12.342,12.899-32.602,0.557-45.251c-12.342-12.65-32.602-12.899-45.251-0.557
			c-12.65,12.342-12.899,32.602-0.557,45.251c0.183,0.188,0.369,0.374,0.557,0.557C406.62,398.27,400.004,410.699,400,424v48
			c-0.001,4.417,3.579,7.999,7.996,8c0.001,0,0.003,0,0.004,0h64c4.417,0.001,7.999-3.579,8-7.996c0-0.001,0-0.003,0-0.004v-48
			C479.996,410.699,473.38,398.27,462.347,390.84z M440,352c8.837,0,16,7.163,16,16s-7.163,16-16,16s-16-7.163-16-16
			C424.01,359.168,431.168,352.01,440,352z M464,464h-48v-40c0-13.255,10.745-24,24-24s24,10.745,24,24V464z"/>
	</g>
</g>
<g>
	<g>
		<path d="M270.347,390.84c12.65-12.342,12.899-32.602,0.557-45.251c-12.342-12.65-32.602-12.899-45.251-0.557
			c-12.65,12.342-12.899,32.602-0.557,45.251c0.183,0.188,0.369,0.374,0.557,0.557C214.62,398.27,208.004,410.699,208,424v48
			c-0.001,4.417,3.579,7.999,7.996,8c0.001,0,0.003,0,0.004,0h64c4.417,0.001,7.999-3.579,8-7.996c0-0.001,0-0.003,0-0.004v-48
			C287.996,410.699,281.38,398.27,270.347,390.84z M248,352c8.837,0,16,7.163,16,16s-7.163,16-16,16s-16-7.163-16-16
			C232.01,359.168,239.168,352.01,248,352z M272,464h-48v-40c0-13.255,10.745-24,24-24s24,10.745,24,24V464z"/>
	</g>
</g>
<g>
</g>
<g>
</g>
<g>
</g>
<g>
</g>
<g>
</g>
<g>
</g>
<g>
</g>
<g>
</g>
<g>
</g>
<g>
</g>
<g>
</g>
<g>
</g>
<g>
</g>
<g>
</g>
<g>
</g>
</svg>
