<?xml version="1.0" encoding="iso-8859-1"?>
<!-- Generator: Adobe Illustrator 19.0.0, SVG Export Plug-In . SVG Version: 6.00 Build 0)  -->
<svg version="1.1" id="Capa_1" xmlns="http://www.w3.org/2000/svg" xmlns:xlink="http://www.w3.org/1999/xlink" x="0px" y="0px"
	 viewBox="0 0 469.333 469.333" style="enable-background:new 0 0 469.333 469.333;" xml:space="preserve">
<g>
	<g>
		<g>
			<rect x="0" y="128" width="42.667" height="42.667"/>
			<rect x="0" y="213.333" width="42.667" height="42.667"/>
			<path d="M0,384c0,23.467,19.2,42.667,42.667,42.667h170.667v-128H0V384z"/>
			<rect x="85.333" y="42.667" width="42.667" height="42.667"/>
			<path d="M426.667,42.667v42.667h42.667C469.333,64,448,42.667,426.667,42.667z"/>
			<rect x="170.667" y="42.667" width="42.667" height="42.667"/>
			<path d="M42.667,42.667C21.333,42.667,0,64,0,85.333h42.667V42.667z"/>
			<rect x="341.333" y="42.667" width="42.667" height="42.667"/>
			<rect x="426.667" y="298.667" width="42.667" height="42.667"/>
			<rect x="426.667" y="213.333" width="42.667" height="42.667"/>
			<rect x="426.667" y="128" width="42.667" height="42.667"/>
			<path d="M426.667,426.667c21.333,0,42.667-21.333,42.667-42.667h-42.667V426.667z"/>
			<rect x="256" y="42.667" width="42.667" height="42.667"/>
			<rect x="256" y="384" width="42.667" height="42.667"/>
			<rect x="341.333" y="384" width="42.667" height="42.667"/>
		</g>
	</g>
</g>
<g>
</g>
<g>
</g>
<g>
</g>
<g>
</g>
<g>
</g>
<g>
</g>
<g>
</g>
<g>
</g>
<g>
</g>
<g>
</g>
<g>
</g>
<g>
</g>
<g>
</g>
<g>
</g>
<g>
</g>
</svg>
