<?xml version="1.0" encoding="UTF-8"?>
<svg width="32px" height="32px" viewBox="0 0 32 32" version="1.1" xmlns="http://www.w3.org/2000/svg" xmlns:xlink="http://www.w3.org/1999/xlink">
    <title>QQ</title>
    <g id="页面-1" stroke="none" stroke-width="1" fill="none" fill-rule="evenodd">
        <g id="1440-登录-交互提示" transform="translate(-983.000000, -526.000000)" fill="#18ACFC" fill-rule="nonzero">
            <g id="编组" transform="translate(190.000000, 112.000000)">
                <g id="内容" transform="translate(606.000000, 0.000000)">
                    <g id="编组-4" transform="translate(40.000000, 376.000000)">
                        <g id="QQ" transform="translate(147.000000, 38.000000)">
                            <path d="M16,-6.8741849e-16 C7.17244186,-6.8741849e-16 1.25352784e-15,7.17275486 1.25352784e-15,16 C1.25352784e-15,24.8272451 7.17275486,32 16,32 C24.8272451,32 32,24.8272451 32,16 C32,7.17275486 24.8272451,-6.8741849e-16 16,-6.8741849e-16 Z M23.208969,20.8182698 C23.1724306,20.8551288 23.1352511,20.8551288 23.0987127,20.8919878 C22.6573661,20.7814109 22.1423015,20.3769232 21.9217894,20.0458343 C21.8115331,19.9355779 21.7743536,19.7516036 21.5907004,19.6782056 C21.5907004,20.3400643 21.1862128,20.9653833 20.8919828,21.4067299 C20.7814059,21.5541657 20.4506362,21.8115368 20.4506362,21.9586534 C20.5608925,22.0323713 20.7080078,22.0689098 20.8551238,22.1057687 C21.1862128,22.252884 21.6644184,22.5102564 21.8480715,22.8044864 C21.9217894,22.9147428 22.0320458,23.0253196 22.0689048,23.1355754 C22.5839693,24.3493576 20.9285212,24.6435876 20.082687,24.8275632 C19.2365334,25.0112169 17.6551225,24.4964742 17.2137791,24.2391031 C16.9564074,24.0551288 16.6987145,23.6503206 16.2942269,23.6503206 C16.1839705,23.7240386 15.8528803,23.6871796 15.6692271,23.6871796 C15.1541626,24.7169863 12.4689204,25.1951918 11.0346261,24.6435907 C10.5932795,24.4961549 9.67373044,24.0919896 9.85770285,23.3929496 C10.0048182,22.8044895 10.4827026,22.4733974 10.9609082,22.2528853 C11.1448825,22.1423084 11.5493682,22.1054495 11.6596258,21.9217963 C11.2551382,21.6275657 10.8871903,21.0391031 10.7035371,20.5609007 C10.5932807,20.303529 10.5564218,19.7516061 10.4093064,19.5676306 C10.1519348,19.9355785 9.41603636,20.7080141 8.79071734,20.5977596 C8.68046097,20.4503238 8.5702046,20.303529 8.4968072,20.1195541 C8.34937136,19.6413485 8.42308928,18.8689129 8.57052512,18.4275663 C8.8275763,17.5080141 9.08526725,16.8458361 9.56347282,16.1839774 C9.71058815,15.9631442 9.93110151,15.8160295 10.078215,15.5955174 C9.7839843,15.3012867 9.85770222,14.4182749 10.041356,14.0506462 C10.1519329,13.7932745 10.3355867,13.8298129 10.372445,13.4253272 C10.2987271,13.3150708 10.372445,13.1679555 10.335586,13.0208395 C10.1884707,12.3586615 10.4461629,11.5496862 10.6298167,11.0346217 C11.2551357,9.3794929 12.3221237,8.20257279 13.9035221,7.54040733 C14.2711508,7.39297149 14.7128166,7.28303564 15.1173043,7.20931834 C15.3012786,7.17245938 15.484933,7.20931834 15.6320464,7.13560042 C19.3468011,7.09906198 21.2227393,9.04841956 21.9217951,12.0275819 C22.0320514,12.5057875 21.9217951,13.1311065 21.9217951,13.6093121 C22.7679486,13.7932864 22.9516017,15.484953 22.252884,15.9631586 L22.252884,16.0000175 C22.5102557,16.4413641 22.8413441,16.8827107 23.0618593,17.3609132 C23.2826926,17.8759777 23.35609,18.4644378 23.5032059,19.0897599 C23.6506418,19.5676431 23.429488,20.6711708 23.2089753,20.8182842 L23.208969,20.8182698 Z" id="形状"></path>
                        </g>
                    </g>
                </g>
            </g>
        </g>
    </g>
</svg>