<?xml version="1.0" encoding="UTF-8"?>
<svg width="124px" height="34px" viewBox="0 0 124 34" version="1.1" xmlns="http://www.w3.org/2000/svg" xmlns:xlink="http://www.w3.org/1999/xlink">
    <title>Group 6</title>
    <defs>
        <path d="M23.6827571,11.9659774 C23.6827571,18.3771682 18.4853602,23.5745651 12.0741694,23.5745651 C5.66297863,23.5745651 0.465581757,18.3771682 0.465581757,11.9659774 C0.465581757,5.5547866 5.66297863,0.357389719 12.0741694,0.357389719 C18.4853602,0.357389719 23.6827571,5.5547866 23.6827571,11.9659774" id="path-1"></path>
        <path d="M2.07499635,16.5230446 C4.37721146,17.194021 10.6778885,18.6446301 14.6563837,15.8358162 C17.2367406,14.0137323 16.9042706,11.0957977 16.9042706,11.0957977 C16.861551,8.87623571 15.4587693,6.67153273 15.4587693,6.67153273 C20.9134124,11.4250172 17.6894755,16.7059959 17.6894755,16.7059959 C16.0294474,19.9721882 12.4312496,21.9363612 9.56114238,22.6245183 C6.22576297,21.8574228 3.47313465,19.5658876 2.07499635,16.5230446 L2.07499635,16.5230446 Z M3.55253739,5.02914975 C4.22862154,8.56976899 5.74423875,11.5564264 6.7523285,12.6420616 C8.05527638,14.0453076 9.9744081,15.5349216 12.4368217,14.9192021 C14.900164,14.3034826 15.4011907,11.611219 15.4011907,11.611219 C15.9454013,9.3201481 15.1708763,6.59955949 15.1290854,6.54244524 C15.0872945,6.48486664 14.717677,6.42078724 14.717677,6.42078724 C15.1040108,10.0287363 14.1548927,11.6251493 14.1548927,11.6251493 C12.7739351,14.4539299 10.74754,13.5791067 10.74754,13.5791067 C8.49268797,12.4303209 8.59902263,9.19152495 8.59902263,9.19152495 C8.53029979,6.93992328 9.42230367,3.21728138 11.1371242,1.05019023 C8.08406568,1.29489926 5.38437253,2.79287142 3.55253739,5.02914975 L3.55253739,5.02914975 Z M16.3080535,1.88507986 C14.9916397,2.9549273 12.752111,5.23949736 12.752111,5.23949736 C9.42973317,8.31763047 10.074242,10.9095959 10.074242,10.9095959 C10.6035936,13.6301845 12.2510843,11.7974207 12.2510843,11.7974207 C13.9830856,10.0073765 13.8539981,6.44214704 13.8539981,6.44214704 C13.1528394,6.55637554 12.708927,6.94363803 12.708927,6.94363803 C12.6230235,9.3201481 11.2197774,10.7949031 11.2197774,10.7949031 C10.6755668,11.3966923 10.289233,10.8236924 10.289233,10.8236924 C10.0031974,10.3937103 10.5752686,10.09328 10.5752686,10.09328 C11.3767255,9.391657 11.6172554,8.19457944 11.6070399,7.74555927 C11.5954313,7.29514606 11.8354969,7.17255938 11.8354969,7.17255938 C12.9666377,6.2986649 14.0982428,5.7832436 14.0982428,5.7832436 C15.6157174,5.01011166 18.3219113,4.88102417 18.3219113,4.88102417 C19.0560384,4.90563437 19.7576615,4.86941558 20.3190528,4.82019517 C19.232489,3.55810952 17.8622113,2.54676936 16.3080535,1.88507986 L16.3080535,1.88507986 Z" id="path-3"></path>
        <linearGradient x1="50%" y1="0%" x2="50%" y2="100%" id="linearGradient-5">
            <stop stop-color="#FFFFFF" offset="0%"></stop>
            <stop stop-color="#F9F9F9" offset="100%"></stop>
        </linearGradient>
        <path d="M64.8064962,18.2901642 C65.3393813,18.2901642 65.3424795,17.8056513 65.3419632,17.7568325 C65.3414468,17.5746808 65.338865,16.3820335 65.338865,16.198832 C65.338865,15.6738992 64.814758,15.6655003 64.814758,15.6655003 C64.814758,15.6655003 54.6191987,15.6571014 53.9629032,15.6571014 C52.9224346,15.6571014 52.9384418,14.6334824 52.9384418,14.6334824 C52.9250164,14.566816 52.9389582,13.5657692 52.9384418,13.5657692 L63.2698042,13.5657692 C66.1376763,13.5657692 65.8474811,11.466038 65.8474811,11.466038 L65.8474811,9.38520445 C65.8474811,9.38520445 66.1273491,5.69177737 62.2412119,5.69177737 L53.5374212,5.69177737 C49.5820916,5.69177737 49.8500832,9.3363857 49.8500832,9.3363857 C49.8500832,11.309608 49.851116,12.0151177 49.851116,14.6114353 C49.851116,18.2901642 53.4708106,18.2733664 53.4708106,18.2733664 M48.2948071,0.967621239 C48.3631727,0.970488418 48.8075492,1.00776175 48.8075492,1.49231509 L48.8075492,1.49231509 L48.8074706,15.6809411 C48.8050295,15.8296196 48.7269029,18.2828152 46.2288395,18.2828152 L46.2288395,18.2828152 L45.669179,18.2825252 C45.6261242,18.282479 45.5838353,18.2824277 45.5422148,18.2823719 L45.0686112,18.2815048 C45.0307778,18.2814182 44.9932228,18.2813286 44.9558486,18.2812363 L44.7329943,18.2806534 C44.6959536,18.280552 44.6588989,18.2804486 44.6217325,18.2803438 L44.3966147,18.2796997 C44.3586118,18.2795903 44.3203023,18.2794803 44.2815886,18.2793698 L44.0436772,18.2787064 C44.002957,18.2785962 43.9616377,18.2784864 43.9196217,18.2783774 L43.5200365,18.2774294 C43.4729632,18.2773289 43.4249008,18.2772303 43.3757517,18.2771341 L43.0670376,18.2765887 C43.013152,18.2765036 42.9579847,18.2764216 42.9014382,18.2763432 L41.7135937,18.2753981 C41.6369874,18.2753762 41.5584169,18.2753601 41.4777848,18.2753503 L40.9684721,18.2753697 C40.8792033,18.2753865 40.7876778,18.2754103 40.6937982,18.2754416 L39.4480025,18.276198 L39.4480025,18.276198 L39.0968535,18.276516 C34.1831568,18.2817653 33.3146366,14.0282349 33.309473,11.9983199 C33.3048257,9.96840477 34.1604368,5.69020258 39.0199156,5.69177737 L39.0199156,5.69177737 L45.7078307,5.69177737 L45.7078307,5.69177737 L45.7084329,4.48277721 C45.7084667,4.41468516 45.7085014,4.3450647 45.7085366,4.27429108 L45.7093931,2.54643809 C45.7094253,2.48122906 45.7094566,2.41786877 45.7094867,2.35673247 L45.7098961,1.50858801 C45.7098961,0.967382307 46.2272904,0.967382307 46.2272904,0.967382307 Z M59.7051162,8.3243942 L61.7408575,8.32484022 L61.7408575,8.32484022 C62.2086811,8.32484022 62.7518935,8.857647 62.7493117,9.37470579 C62.7472462,9.78362843 62.7410499,10.0340214 62.7410499,10.4245714 C62.7410499,10.4245714 62.7410499,10.9484543 62.2417283,10.9484543 L53.9874123,10.9493818 C53.923137,10.9493893 53.861227,10.9493965 53.801852,10.9494034 L52.9384418,10.9495042 L52.9384418,10.9495042 L52.9384681,10.9321207 L52.9384681,10.9321207 L52.9393714,10.3165215 C52.93944,10.2683934 52.9395091,10.2194323 52.9395776,10.1703826 L52.9404069,9.52101739 C52.9404705,9.45835675 52.9405073,9.41022625 52.9405073,9.38257979 C52.9405073,8.84977301 53.4387962,8.32641502 53.9794267,8.32484022 L54.1301374,8.32451199 C54.1652049,8.32446413 54.2050355,8.32441957 54.2493124,8.32437817 L59.4138101,8.32433249 C59.5125951,8.32435301 59.6098028,8.32437363 59.7051162,8.3243942 Z M87.1820575,5.69222065 C87.2236494,5.69227652 87.2645716,5.692337 87.3049216,5.69240171 L87.7679053,5.69335626 C87.8052397,5.69344857 87.8423924,5.69354356 87.8794609,5.69364083 L88.1016431,5.69424876 C88.1387655,5.69435361 88.1759988,5.69445998 88.2134409,5.69456746 L88.4413776,5.69522269 C88.4800446,5.69533309 88.5191154,5.69544385 88.5586877,5.69555455 L88.8029197,5.69621512 C88.8448881,5.69632409 88.8875532,5.69643224 88.9310126,5.69653917 L89.2020805,5.69716314 C89.2491072,5.69726368 89.2971234,5.69736223 89.3462266,5.6974584 L89.8201408,5.69824931 C89.8766447,5.69832773 89.9345283,5.6984026 89.9938895,5.69847355 L93.2724602,5.69839454 L93.2724602,5.69839454 L93.6236029,5.69807657 C98.5372996,5.69282724 99.4058198,9.9463576 99.4109834,11.9762727 C99.4156306,14.0067127 98.5600195,18.2849149 93.7005407,18.2828152 L93.7005407,18.2828152 L87.013142,18.2828152 L87.013142,18.2828152 L87.0125398,19.4918153 C87.012506,19.5599074 87.0124713,19.6295278 87.0124361,19.7003015 L87.011486,21.6178601 C87.0114559,21.6789964 87.0114269,21.7379087 87.0113993,21.7942218 L87.0110766,22.4660045 C87.0110766,23.0072102 86.4952313,23.0072102 86.4952313,23.0072102 L84.4293246,23.0069713 C84.3614328,23.0041041 83.9201362,22.9668308 83.9201362,22.4822774 L83.9201362,22.4822774 L83.9202051,8.29417493 C83.9224406,8.1454665 83.9971836,5.69177737 86.4957477,5.69177737 L86.4957477,5.69177737 Z M110.467992,5.693243 C110.555589,5.69329131 110.643381,5.6933429 110.731307,5.69339792 L111.788997,5.69423206 C111.87703,5.69431685 111.964957,5.69440566 112.052715,5.69449864 L112.576771,5.69510767 L112.576771,5.69510767 L112.836384,5.6954519 C116.629576,5.70070123 118,7.79255838 118,10.7022608 L118,10.7022608 L118,17.7657564 C118,18.0555193 117.769186,18.2901642 117.484155,18.2906892 L117.484155,18.2906892 L115.419741,18.291739 C115.133677,18.2922639 114.902347,18.0565691 114.902863,17.7657564 L114.902863,17.7657564 L114.917838,10.9411052 C114.917838,8.36001072 112.918486,8.32064076 112.832253,8.32064076 L111.389597,8.32133543 C111.318387,8.32138731 111.246342,8.3214413 111.173668,8.32149712 L110.284724,8.3222369 C110.210345,8.32230287 110.136167,8.32236955 110.062398,8.32243664 L109.210026,8.32324409 C109.142839,8.32331006 109.076889,8.32337533 109.012384,8.3234396 L108.179036,8.32429455 C108.134156,8.32434192 108.091756,8.32438688 108.052043,8.32442917 L107.672252,8.32484022 L107.687227,17.7489585 L107.687227,17.7489585 L107.686724,17.7759597 C107.68095,17.8957264 107.618938,18.3691666 106.996335,18.2791406 C106.828001,18.2796656 106.627595,18.2803071 106.416499,18.2810071 L105.77252,18.2832234 C105.561423,18.2839817 105.361018,18.2847399 105.192684,18.2854398 C104.724344,18.346332 104.574599,17.995152 104.574599,17.7568325 L104.574599,17.7568325 L104.574599,5.6938771 L104.574599,5.6938771 L105.332085,5.69338498 C105.375558,5.69336112 105.420675,5.69333699 105.467375,5.69331273 Z M103.025514,5.69177737 C103.310546,5.69177737 103.541876,5.92694726 103.541876,6.21671016 L103.541876,17.7652314 C103.541876,18.0549943 103.310546,18.2901642 103.025514,18.2901642 L100.960068,18.2901642 C100.675037,18.2901642 100.443707,18.0549943 100.443707,17.7652314 L100.443707,6.21671016 C100.443707,5.92694726 100.675037,5.69177737 100.960068,5.69177737 L103.025514,5.69177737 Z M41.6317612,8.32941698 L42.5440279,8.33034177 C42.6216523,8.33042635 42.6994018,8.33051234 42.7770699,8.33059939 L43.2404484,8.33113157 C43.3169644,8.33122144 43.3929858,8.33131166 43.468306,8.33140188 L44.1216788,8.33220437 C44.1909328,8.33229142 44.2588659,8.33237742 44.3252716,8.332462 L44.8761035,8.33317568 C44.9314852,8.33324863 44.9847198,8.33331912 45.0356005,8.33338679 L45.6990526,8.33428901 L45.6990526,8.33428901 L45.6994236,9.48487871 C45.6994456,9.55352964 45.6994684,9.62440485 45.6994917,9.6972627 L45.7003749,12.4996302 C45.7004018,12.5868662 45.7004284,12.6734266 45.7004547,12.7590699 L45.701118,15.1536908 C45.701118,15.1536908 45.7093798,15.6655003 45.1847564,15.6655003 L44.5777309,15.6661591 C44.5222022,15.6662362 44.4640528,15.6663178 44.4035175,15.6664025 L43.800619,15.6672166 C43.7278812,15.6673088 43.653462,15.6674004 43.577596,15.6674901 L42.8620795,15.6682084 C42.7796463,15.6682746 42.6964707,15.6683349 42.6127875,15.668388 L41.3488241,15.6684887 C41.2659355,15.6684382 41.1837132,15.6683741 41.1023923,15.6682951 L40.6271597,15.6676322 C40.4736061,15.6673448 40.3255358,15.6669876 40.1848273,15.6665502 C38.4952923,15.6618258 36.424166,15.2843991 36.4231333,12.0319156 C36.4215842,8.77890708 38.7235241,8.32851475 40.1605583,8.32851475 L41.4148671,8.32922279 C41.486076,8.32928447 41.5584429,8.32934931 41.6317612,8.32941698 Z M103.025514,0.967382307 C103.310546,0.967382307 103.541876,1.20255219 103.541876,1.49231509 L103.541876,3.59204623 C103.541876,3.88180913 103.310546,4.11697902 103.025514,4.11697902 L100.960068,4.11697902 C100.675037,4.11697902 100.443707,3.88180913 100.443707,3.59204623 L100.443707,1.49231509 C100.443707,1.20255219 100.675037,0.967382307 100.960068,0.967382307 L103.025514,0.967382307 Z M79.2811438,5.69177737 C83.167281,5.69177737 82.887413,9.38520445 82.887413,9.38520445 L82.887413,9.38520445 L82.887413,11.466038 C82.887413,11.466038 83.1776082,13.5657692 80.3097361,13.5657692 L80.3097361,13.5657692 L69.9783737,13.5657692 L69.9783737,13.5657692 L69.9776207,13.6402294 C69.9763119,13.7568629 69.9737032,13.9912873 69.9728201,14.2034978 L69.9727825,14.4385273 C69.9733715,14.5417504 69.9750174,14.6168158 69.9783737,14.6334824 C69.9783737,14.6334824 69.9623665,15.6571014 71.0028351,15.6571014 L71.0028351,15.6571014 L71.4391945,15.6573194 C71.4835851,15.6573475 71.5308017,15.6573781 71.580704,15.657411 L72.7386871,15.6582368 C72.8157653,15.6582941 72.8946871,15.6583531 72.9753121,15.6584137 L74.0155851,15.6592074 C74.1075904,15.6592785 74.2007375,15.6593507 74.2948861,15.6594238 L75.4637569,15.6603394 C75.5636716,15.6604182 75.6640264,15.6604975 75.7646808,15.6605772 L76.6748733,15.6613008 C76.7760628,15.6613816 76.8771309,15.6614623 76.9779374,15.661543 L77.8743395,15.6622623 C77.9723125,15.6623411 78.0696027,15.6624195 78.1660698,15.6624973 L79.0082597,15.6631779 C79.0985248,15.663251 79.1875458,15.6633231 79.2751823,15.6633942 L80.4683444,15.6643649 C80.5386266,15.6644222 80.6068225,15.6644779 80.6727918,15.6645318 L81.6826863,15.6653588 C81.710605,15.6653818 81.7353146,15.6654021 81.7566747,15.6654197 L81.8635165,15.6658807 C81.9322205,15.6698488 82.3787969,15.7142787 82.3787969,16.198832 L82.3787969,16.198832 L82.3792084,16.4939427 C82.3792917,16.5407492 82.379385,16.5910589 82.3794854,16.6437028 L82.3801523,16.978226 C82.3802707,17.0355311 82.3803908,17.0928326 82.38051,17.1489616 L82.3811931,17.4623124 C82.381298,17.5090752 82.3813966,17.5523274 82.3814863,17.5909003 L82.3817106,17.7754137 C82.3787999,17.8773248 82.3383221,18.2901642 81.8464281,18.2901642 L81.8464281,18.2901642 L70.5107425,18.2733664 L70.5107425,18.2733664 L70.4879791,18.2731019 C70.4506472,18.2723497 70.3689267,18.2694901 70.2541993,18.2586866 L70.1014116,18.2415357 C69.1540911,18.1185064 66.8910479,17.5201977 66.8910479,14.6114353 L66.8910479,14.6114353 L66.8904543,11.5179206 C66.8904288,11.4443265 66.8904035,11.3711165 66.8903787,11.2978957 L66.8896674,9.33106627 C66.88019,9.17620292 66.7099197,5.69177737 70.5773531,5.69177737 L70.5773531,5.69177737 Z M92.535629,8.30804238 C94.2251641,8.3132917 96.2962904,8.69019344 96.2973231,11.942677 C96.2988722,15.1956854 93.9969323,15.6460778 92.559898,15.6460778 L91.3055892,15.6454341 C91.2343803,15.645378 91.1620135,15.6453191 91.0886952,15.6452576 L90.1764285,15.6444169 C90.098804,15.64434 90.0210545,15.6442618 89.9433864,15.6441827 L89.2521503,15.6434531 C89.1768301,15.6433711 89.1022111,15.6432891 89.0284998,15.6432074 L88.3951848,15.6424894 C88.3287791,15.6424125 88.2639009,15.6423369 88.2007567,15.6422629 L87.5394813,15.6414721 C87.4935146,15.6414161 87.4501083,15.6413629 87.4094688,15.6413129 L87.0214038,15.6408285 L87.0214038,15.6408285 L87.0204749,13.3237059 C87.0204412,13.2388489 87.0204072,13.1529759 87.020373,13.0663287 L87.0194605,10.7148942 C87.01943,10.6338865 87.0194,10.5542797 87.0193709,10.4763155 L87.018822,8.82142664 C87.018822,8.82142664 87.0110766,8.30909224 87.5351836,8.30909224 L88.1422138,8.30843342 C88.1977434,8.30835633 88.2558939,8.30827477 88.3164305,8.30819001 L88.7064064,8.30765354 C88.7755486,8.30756119 88.8466075,8.30746823 88.9193482,8.30737596 L89.8579425,8.30638411 C89.9403821,8.30631796 90.0235645,8.30625766 90.107255,8.3062045 L91.6178465,8.30629746 C91.9431902,8.30661339 92.2541259,8.30716749 92.535629,8.30804238 Z M79.2816602,10.9484543 C78.9517051,10.9484543 69.9783737,10.9495042 69.9783737,10.9495042 C69.9783737,10.9495042 69.9804392,9.58992824 69.9804392,9.38257979 C69.9804392,8.84977301 70.4787281,8.32641502 71.0193586,8.32484022 C71.5207457,8.32274049 78.2613297,8.32484022 78.7807894,8.32484022 C79.248613,8.32484022 79.7918254,8.857647 79.7892436,9.37470579 C79.7871782,9.78362843 79.7809818,10.0340214 79.7809818,10.4245714 C79.7809818,10.4245714 79.7809818,10.9484543 79.2816602,10.9484543" id="path-6"></path>
        <filter x="-9.4%" y="-31.8%" width="118.9%" height="172.6%" filterUnits="objectBoundingBox" id="filter-7">
            <feOffset dx="0" dy="1" in="SourceAlpha" result="shadowOffsetOuter1"></feOffset>
            <feGaussianBlur stdDeviation="2.5" in="shadowOffsetOuter1" result="shadowBlurOuter1"></feGaussianBlur>
            <feColorMatrix values="0 0 0 0 0   0 0 0 0 0   0 0 0 0 0  0 0 0 0.1 0" type="matrix" in="shadowBlurOuter1"></feColorMatrix>
        </filter>
    </defs>
    <g id="页面-1" stroke="none" stroke-width="1" fill="none" fill-rule="evenodd">
        <g id="union-ID-注册-中国大陆-交互" transform="translate(-19.000000, -99.000000)">
            <g id="编组" transform="translate(0.000000, 64.000000)">
                <g id="Group-6" transform="translate(20.000000, 39.000000)">
                    <g id="Imported-Layers">
                        <g id="Group-3">
                            <mask id="mask-2" fill="white">
                                <use xlink:href="#path-1"></use>
                            </mask>
                            <g id="Clip-2"></g>
                            <path d="M23.6827571,11.9659774 C23.6827571,18.3771682 18.4853602,23.5745651 12.0741694,23.5745651 C5.66297863,23.5745651 0.465581757,18.3771682 0.465581757,11.9659774 C0.465581757,5.5547866 5.66297863,0.357389719 12.0741694,0.357389719 C18.4853602,0.357389719 23.6827571,5.5547866 23.6827571,11.9659774" id="Fill-1" mask="url(#mask-2)"></path>
                        </g>
                        <path d="M23.2588119,11.9599609 C23.2588119,18.1404227 18.248595,23.1506396 12.0681332,23.1506396 C5.88767135,23.1506396 0.877454448,18.1404227 0.877454448,11.9599609 C0.877454448,5.77949914 5.88767135,0.768798067 12.0681332,0.768798067 C18.248595,0.768798067 23.2588119,5.77949914 23.2588119,11.9599609" id="Fill-4" stroke="#FFFFFF" stroke-width="2"></path>
                        <mask id="mask-4" fill="white">
                            <use xlink:href="#path-3"></use>
                        </mask>
                        <use id="Clip-6" fill="#FFFFFF" xlink:href="#path-3"></use>
                    </g>
                    <g id="Fill-1">
                        <use fill="black" fill-opacity="1" filter="url(#filter-7)" xlink:href="#path-6"></use>
                        <use fill="url(#linearGradient-5)" fill-rule="evenodd" xlink:href="#path-6"></use>
                    </g>
                </g>
            </g>
        </g>
    </g>
</svg>