<?xml version="1.0" encoding="UTF-8"?>
<svg width="32px" height="32px" viewBox="0 0 32 32" version="1.1" xmlns="http://www.w3.org/2000/svg" xmlns:xlink="http://www.w3.org/1999/xlink">
    <title>GitHub</title>
    <g id="页面-1" stroke="none" stroke-width="1" fill="none" fill-rule="evenodd">
        <g id="1440-登录-交互提示" transform="translate(-1079.000000, -526.000000)" fill="#181517" fill-rule="nonzero">
            <g id="编组" transform="translate(190.000000, 112.000000)">
                <g id="内容" transform="translate(606.000000, 0.000000)">
                    <g id="编组-4" transform="translate(40.000000, 376.000000)">
                        <g id="GitHub" transform="translate(243.000000, 38.000000)">
                            <path d="M28.9390068,26.0439118 C26.9018998,28.9020342 24.2781913,30.8742846 21.0572159,31.9715994 C20.6874792,32.0372196 20.3995112,31.9898273 20.2395289,31.8221313 C20.0653261,31.6580809 19.9728919,31.4247648 19.9835574,31.180512 L19.9835574,26.6855311 C19.9835574,25.3075078 19.6173758,24.2903953 18.8956783,23.648776 C19.6138207,23.5758647 20.3248528,23.44827 21.0252194,23.2696373 C21.7113654,23.080068 22.3655149,22.7993595 22.9805577,22.4348031 C23.6524831,22.0410821 24.2141984,21.5780954 24.6621487,21.0203241 C25.1100989,20.4625528 25.4762804,19.7042754 25.7678036,18.7710109 C26.0557716,17.8341008 26.2015332,16.7695961 26.2015332,15.5519776 C26.2015332,13.8276256 25.6575936,12.3657543 24.5519387,11.1517814 C25.0638818,9.85396046 25.0176647,8.41031698 24.3919564,6.79897753 C24.0079991,6.66773721 23.4498389,6.75158519 22.7103655,7.02864809 C22.0419953,7.27654646 21.3985113,7.590065 20.7870237,7.96555813 L20.0013332,8.47229157 C18.7001444,8.09679844 17.3527386,7.9072291 15.9982224,7.91452023 C14.6223753,7.91452023 13.2927453,8.09315288 11.9951117,8.47229157 C11.7071437,8.27178553 11.4120653,8.07857062 11.1134318,7.89993797 C10.7436951,7.67026741 10.1677591,7.39320452 9.36784802,7.07968599 C8.5857127,6.75158519 7.97422509,6.66773721 7.57249195,6.78439527 C6.96455949,8.39208916 6.91478725,9.83937821 7.43028552,11.1371991 C6.3424064,12.3693999 5.78069103,13.8312712 5.78069103,15.5519776 C5.78069103,16.7695961 5.92289746,17.8341008 6.21442062,18.7527831 C6.50238862,19.6714653 6.87212532,20.4297427 7.30229974,21.0020963 C7.75024997,21.5744499 8.30841018,22.0520188 8.98389068,22.4311575 C9.65581602,22.8066506 10.3135207,23.0873591 10.939229,23.2659917 C11.6395956,23.4446244 12.3506277,23.5722192 13.0687701,23.6451304 C12.5070548,24.1518639 12.1728697,24.8919134 12.0448839,25.8434057 C11.7462504,25.9928739 11.426286,26.0985953 11.0992112,26.1569243 C10.7081435,26.22619 10.3099656,26.2590001 9.91534274,26.2553545 C9.44961671,26.2553545 9.00166648,26.1058864 8.55371625,25.7960134 C8.10576603,25.4861404 7.72180869,25.0413816 7.40184424,24.4653824 C7.14587268,24.0242691 6.80457727,23.6414849 6.39217865,23.3498397 C5.99044551,23.054549 5.63848461,22.8904986 5.36829241,22.8394607 L4.95233863,22.7738406 C4.66437063,22.7738406 4.45461615,22.8066506 4.34440618,22.8722708 C4.23064104,22.937891 4.1986446,23.0217389 4.24841684,23.1165236 C4.29463393,23.2149538 4.35862682,23.3133841 4.44039551,23.4118143 C4.5221642,23.5102446 4.61459838,23.590447 4.71414287,23.674295 L4.85990446,23.7727252 C5.16564826,23.9185478 5.46783691,24.184674 5.77358071,24.5783949 C6.07932452,24.9721159 6.28552383,25.3330267 6.43128541,25.6611275 L6.64103988,26.1532787 C6.81524275,26.6964678 7.12098656,27.1375811 7.55471614,27.4656819 C7.98844573,27.7937827 8.4506166,28.008871 8.94833907,28.1073012 C9.44250639,28.2057315 9.92600822,28.2567694 10.3881791,28.2567694 C10.8539051,28.2567694 11.2378625,28.2385415 11.5400511,28.1729214 L12.0199978,28.0890734 C12.0199978,28.6322625 12.0199978,29.2702362 12.0342184,29.9957036 C12.0342184,30.7175253 12.0519942,31.1112462 12.0519942,31.1440563 C12.0591045,31.3883091 11.9560049,31.6216253 11.7782469,31.7856757 C11.604044,31.9497261 11.3125208,31.9971184 10.9463393,31.9314982 C7.71825353,30.8378289 5.09454505,28.8692242 3.05743806,26.0111017 C1.00611043,23.1857893 -7.34862707e-16,19.966756 -7.34862707e-16,16.4050396 C-7.34862707e-16,13.4339047 0.721697589,10.6887947 2.14731696,8.17700086 C3.54449506,5.69437153 5.55316076,3.6309821 7.97778025,2.19827531 C10.4237307,0.740049565 13.1007666,-3.76774729e-16 15.9982224,-3.76774729e-16 C18.8956783,-3.76774729e-16 21.5727141,0.740049565 24.0222198,2.20192087 C26.4432841,3.63462767 28.4555049,5.69437153 29.852683,8.18064642 C31.2783024,10.677858 32,13.4375502 32,16.4086852 C31.9964448,19.9849838 30.9725586,23.1857893 28.9390068,26.0439118 L28.9390068,26.0439118 Z" id="路径"></path>
                        </g>
                    </g>
                </g>
            </g>
        </g>
    </g>
</svg>