<?xml version="1.0" encoding="UTF-8"?>
<svg width="34px" height="34px" viewBox="0 0 34 34" version="1.1" xmlns="http://www.w3.org/2000/svg" xmlns:xlink="http://www.w3.org/1999/xlink">
    <!-- Generator: Sketch 51.1 (57501) - http://www.bohemiancoding.com/sketch -->
    <title>微信</title>
    <desc>Created with Sketch.</desc>
    <defs>
        <linearGradient x1="50%" y1="0%" x2="50%" y2="100%" id="linearGradient-1">
            <stop stop-color="#19C800" offset="0%"></stop>
            <stop stop-color="#17BB00" offset="100%"></stop>
        </linearGradient>
    </defs>
    <g id="Page-1" stroke="none" stroke-width="1" fill="none" fill-rule="evenodd">
        <g id="账号信息" transform="translate(-760.000000, -627.000000)">
            <g id="微信" transform="translate(760.000000, 627.000000)">
                <g>
                    <circle id="Oval" fill="#18C400" cx="17" cy="17" r="17"></circle>
                    <path d="M13.8,20.6921182 C9.8235498,20.6921182 6.6,17.8894869 6.6,14.432266 C6.6,10.9750451 9.8235498,8.17241379 13.8,8.17241379 C17.7764502,8.17241379 21,10.9750451 21,14.432266 C21,16.1748939 20.1809896,17.7512095 18.859374,18.8861227 L19.32,21.6551724 L16.7555647,20.1420864 C15.8538192,20.495466 14.853324,20.6921182 13.8,20.6921182 Z M16.72,13.044335 C17.2722847,13.044335 17.72,12.6004793 17.72,12.0529557 C17.72,11.505432 17.2722847,11.0615764 16.72,11.0615764 C16.1677153,11.0615764 15.72,11.505432 15.72,12.0529557 C15.72,12.6004793 16.1677153,13.044335 16.72,13.044335 Z M10.96,13.044335 C11.5122847,13.044335 11.96,12.6004793 11.96,12.0529557 C11.96,11.505432 11.5122847,11.0615764 10.96,11.0615764 C10.4077153,11.0615764 9.96,11.505432 9.96,12.0529557 C9.96,12.6004793 10.4077153,13.044335 10.96,13.044335 Z" id="Combined-Shape" fill="#FFFFFF" transform="translate(13.800000, 14.913793) scale(-1, 1) translate(-13.800000, -14.913793) "></path>
                    <path d="M20.2,23.9778325 C16.6653776,23.9778325 13.8,21.5049225 13.8,18.4544335 C13.8,15.4039445 16.6653776,12.9310345 20.2,12.9310345 C23.7346224,12.9310345 26.6,15.4039445 26.6,18.4544335 C26.6,19.9920463 25.8719907,21.3829131 24.6972213,22.384307 L25.1066667,24.8275862 L22.8271687,23.4925103 C22.0256171,23.8043159 21.136288,23.9778325 20.2,23.9778325 Z" id="Combined-Shape" fill="url(#linearGradient-1)"></path>
                    <path d="M20.6,24.0344828 C17.2862915,24.0344828 14.6,21.7264335 14.6,18.8793103 C14.6,16.0321872 17.2862915,13.7241379 20.6,13.7241379 C23.9137085,13.7241379 26.6,16.0321872 26.6,18.8793103 C26.6,20.3144157 25.9174913,21.612558 24.816145,22.5471923 L25.2,24.8275862 L23.0629706,23.5815153 C22.311516,23.8725339 21.47777,24.0344828 20.6,24.0344828 Z M23,17.6896552 C23.4418278,17.6896552 23.8,17.3345707 23.8,16.8965517 C23.8,16.4585328 23.4418278,16.1034483 23,16.1034483 C22.5581722,16.1034483 22.2,16.4585328 22.2,16.8965517 C22.2,17.3345707 22.5581722,17.6896552 23,17.6896552 Z M18.2,17.6896552 C18.6418278,17.6896552 19,17.3345707 19,16.8965517 C19,16.4585328 18.6418278,16.1034483 18.2,16.1034483 C17.7581722,16.1034483 17.4,16.4585328 17.4,16.8965517 C17.4,17.3345707 17.7581722,17.6896552 18.2,17.6896552 Z" id="Combined-Shape" fill="#FFFFFF"></path>
                </g>
            </g>
        </g>
    </g>
</svg>