<?xml version="1.0" encoding="UTF-8"?>
<svg width="80px" height="80px" viewBox="0 0 80 80" version="1.1" xmlns="http://www.w3.org/2000/svg" xmlns:xlink="http://www.w3.org/1999/xlink">
    <title>产品反馈</title>
    <defs>
        <linearGradient x1="7.9658214%" y1="11.0506138%" x2="91.3585263%" y2="91.2885446%" id="linearGradient-1">
            <stop stop-color="#2AC5FF" offset="0%"></stop>
            <stop stop-color="#287CF3" offset="100%"></stop>
        </linearGradient>
        <rect id="path-2" x="0" y="0" width="80" height="80" rx="8"></rect>
        <linearGradient x1="33.3430632%" y1="6.52106584%" x2="55.8923596%" y2="81.4454835%" id="linearGradient-4">
            <stop stop-color="#FFFFFF" stop-opacity="0.2" offset="0%"></stop>
            <stop stop-color="#FFFFFF" stop-opacity="0" offset="100%"></stop>
        </linearGradient>
        <linearGradient x1="62.3987027%" y1="50%" x2="12.6602938%" y2="50%" id="linearGradient-5">
            <stop stop-color="#29A9FB" offset="0%"></stop>
            <stop stop-color="#84D6FF" offset="100%"></stop>
        </linearGradient>
        <linearGradient x1="62.3987027%" y1="50%" x2="12.6602938%" y2="50%" id="linearGradient-6">
            <stop stop-color="#29A9FB" offset="0%"></stop>
            <stop stop-color="#84D6FF" offset="100%"></stop>
        </linearGradient>
    </defs>
    <g id="产品反馈" stroke="none" stroke-width="1" fill="none" fill-rule="evenodd">
        <g id="椭圆形-+-椭圆形备份-蒙版">
            <mask id="mask-3" fill="white">
                <use xlink:href="#path-2"></use>
            </mask>
            <use id="蒙版" fill="url(#linearGradient-1)" xlink:href="#path-2"></use>
            <circle id="椭圆形" fill="url(#linearGradient-4)" mask="url(#mask-3)" cx="60" cy="55" r="29"></circle>
            <circle id="椭圆形备份" fill-opacity="0.1" fill="#FFFFFF" mask="url(#mask-3)" cx="37.5" cy="81.5" r="12.5"></circle>
        </g>
        <g id="反馈" transform="translate(23.000000, 23.000000)">
            <path d="M0.299295281,4.18550043 L0.299295281,29.3177115 L0.299295281,29.3177115 C0.302154635,30.4889372 0.770196161,31.6110553 1.6004406,32.4371763 C2.43090743,33.26299 3.55549825,33.7249536 4.72666746,33.721459 L15.7336756,33.721459 L15.993321,33.4587741 L31.0564442,18.1907907 L31.3105746,17.9337385 L31.3105746,4.59799328 C31.3054613,2.15720216 29.3235512,0.182048884 26.8832348,0.185500429 L4.29929528,0.185500429 C2.09015628,0.185500429 0.299295281,1.97636143 0.299295281,4.18550043 Z M27.7394954,23.6597496 L21.5171362,29.858259 L21.3879161,29.9861642 L21.3522327,30.1642527 L20.7492666,33.1718882 L20.5724929,34.0557565 L21.4588447,33.8789828 L24.47846,33.277295 L24.658265,33.2416116 L24.7874121,33.1123915 L31.0016265,26.9237069 L31.0047675,26.9206024 L27.7394954,23.6597496 Z M33.2381053,23.8450332 L30.8231363,21.4386472 L30.3957385,21.0140618 L29.9677564,21.4386472 L28.5857079,22.8151442 L31.8530984,26.0763622 L31.8570064,26.0724907 L33.2410637,24.6944233 L33.6659779,24.2695091 L33.2381053,23.8450332 Z" id="形状" fill="#FFFFFF" fill-rule="nonzero"></path>
            <path d="M16.8755863,24.376669 C16.875915,24.697053 16.7489594,25.004252 16.522039,25.2302958 C16.2951186,25.4563396 15.987043,25.5826378 15.666586,25.5809385 C14.9986446,25.5809385 14.4563805,25.0421268 14.4563805,24.3767055 L14.4563805,24.0570886 L14.4563805,24.0568749 C14.4563805,23.736408 14.5841517,23.4291678 14.8113942,23.2032007 L14.8113942,23.2032006 C15.0385173,22.9771911 15.3463646,22.8510423 15.6667741,22.8526689 L15.6667741,22.8526689 C15.9869711,22.8518536 16.2943827,22.9782532 16.521387,23.2040772 L16.521387,23.2040772 C16.7480496,23.4300498 16.8755574,23.7368744 16.8758109,24.056937 L16.8758109,24.3765174 L16.8755863,24.376669 Z" id="路径" fill="url(#linearGradient-5)"></path>
            <path d="M18.3849556,16.0962848 C16.9188666,17.5135054 16.18679,18.735581 16.18679,19.7529425 L16.18679,20.6205943 C16.18679,20.6205943 16.0694035,21.3646507 15.2242867,21.3646507 C14.3790603,21.3646507 14.2617834,20.6205943 14.2617834,20.6205943 L14.2617834,19.3713087 C14.2617834,18.1534698 15.0266216,16.7754024 16.5551658,15.234915 C17.7076277,14.0188292 18.3565038,13.0206425 18.4754973,12.249778 C18.4160006,10.5181632 17.5308175,9.55693829 15.8226143,9.36526307 C13.254685,9.23786917 12.0011626,10.5181632 12.0636178,13.2134865 C12.0636178,13.2134865 12.008796,14.0455644 11.0743428,14.0455644 C10.1404374,14.0455644 10.0451477,13.2134865 10.0451477,13.2134865 C10.0451477,9.1741357 11.9093791,7.18535917 15.6356141,7.24748561 C18.874845,7.37834924 20.5517476,9.04783751 20.6795798,12.2484631 C20.6795798,13.4038834 19.9189052,14.6902769 18.3849556,16.0962848 L18.3849556,16.0962848 Z" id="路径" fill="url(#linearGradient-6)"></path>
        </g>
    </g>
</svg>