<?xml version="1.0" encoding="UTF-8"?>
<svg width="80px" height="80px" viewBox="0 0 80 80" version="1.1" xmlns="http://www.w3.org/2000/svg" xmlns:xlink="http://www.w3.org/1999/xlink">
    <title>体验心得</title>
    <defs>
        <linearGradient x1="7.9658214%" y1="11.0506138%" x2="91.3585263%" y2="91.2885446%" id="linearGradient-1">
            <stop stop-color="#FFE64C" offset="0%"></stop>
            <stop stop-color="#FFA500" offset="100%"></stop>
        </linearGradient>
        <rect id="path-2" x="0" y="0" width="80" height="80" rx="8"></rect>
        <linearGradient x1="50%" y1="100%" x2="50%" y2="0%" id="linearGradient-4">
            <stop stop-color="#F7CA47" offset="0%"></stop>
            <stop stop-color="#FFF0D5" offset="100%"></stop>
        </linearGradient>
        <linearGradient x1="50%" y1="100%" x2="50%" y2="0%" id="linearGradient-5">
            <stop stop-color="#F7CA47" offset="0%"></stop>
            <stop stop-color="#FFF0D5" offset="100%"></stop>
        </linearGradient>
        <linearGradient x1="50%" y1="100%" x2="50%" y2="0%" id="linearGradient-6">
            <stop stop-color="#F7CA47" offset="0%"></stop>
            <stop stop-color="#FFF0D5" offset="100%"></stop>
        </linearGradient>
        <linearGradient x1="50%" y1="100%" x2="50%" y2="0%" id="linearGradient-7">
            <stop stop-color="#F7CA47" offset="0%"></stop>
            <stop stop-color="#FFF0D5" offset="100%"></stop>
        </linearGradient>
    </defs>
    <g id="体验心得" stroke="none" stroke-width="1" fill="none" fill-rule="evenodd">
        <g id="椭圆形-+-椭圆形备份-蒙版">
            <mask id="mask-3" fill="white">
                <use xlink:href="#path-2"></use>
            </mask>
            <use id="蒙版" fill="url(#linearGradient-1)" xlink:href="#path-2"></use>
            <circle id="椭圆形" fill-opacity="0.1" fill="#FFFFFF" mask="url(#mask-3)" cx="60" cy="55" r="29"></circle>
            <circle id="椭圆形备份" fill-opacity="0.1" fill="#FFFFFF" mask="url(#mask-3)" cx="37.5" cy="81.5" r="12.5"></circle>
        </g>
        <g id="灯泡-点子-发现-面性" transform="translate(20.000000, 20.000000)">
            <path d="M20.0000087,32.7272809 C12.5000087,32.7272809 6.419757,26.75758 6.419757,19.3939447 C6.419757,12.0303094 12.5000087,6.06060851 20.0000087,6.06060851 C27.5000087,6.06060851 33.5802604,12.0303094 33.5802604,19.3939447 C33.5802604,26.75758 27.5000087,32.7272809 20.0000087,32.7272809 Z M15.1987934,36.3636426 C14.4234853,36.3636426 13.8271875,35.8206128 13.8271875,35.1515234 C13.8271875,34.482434 14.4234853,33.9394043 15.1987934,33.9394043 L24.8012674,33.9394043 C25.5765755,33.9394043 26.1728733,34.482434 26.1728733,35.1515234 C26.1728733,35.8206128 25.5765755,36.3636426 24.8012674,36.3636426 L15.1975782,36.3636426 L15.1987934,36.3636426 Z M16.2963238,37.5757617 L23.7037457,37.5757617 L23.7037456,37.5757617 C24.3855772,37.5757617 24.9383116,38.1184463 24.9383116,38.7878809 C24.9383116,39.4573154 24.3855772,40 23.7037456,40 L16.2963238,40 L16.2963237,40 C15.6144921,40 15.0617577,39.4573154 15.0617577,38.7878809 C15.0617577,38.1184463 15.6144921,37.5757617 16.2963237,37.5757617 L16.2963238,37.5757617 Z" id="形状" fill="#FFFFFF" fill-rule="nonzero"></path>
            <path d="M19.9815104,0 L19.9815104,0 C20.663342,0 21.2160764,0.542684582 21.2160764,1.21211915 C21.2160764,1.21211918 21.2160764,1.2121192 21.2160764,1.21211923 L21.2160764,3.63636178 L21.2160764,3.63636178 C21.2160764,4.30579635 20.663342,4.84848093 19.9815104,4.84848093 C19.2996788,4.84848093 18.7469445,4.30579635 18.7469445,3.63636178 L18.7469445,1.21211923 L18.7469445,1.21211937 C18.7469445,0.542684808 19.2996788,0 19.9815104,0 C19.9815104,0 19.9815105,0 19.9815105,0 L19.9815104,0 Z" id="路径" fill="url(#linearGradient-4)"></path>
            <path d="M34.3851997,5.85818099 L34.3851996,5.85818097 C34.8671528,6.33151613 34.8671528,7.09878733 34.3851997,7.57211823 L32.6395226,9.28605549 L32.6395226,9.28605546 C32.1658464,9.76757244 31.3842796,9.78091051 30.8938455,9.31584465 C30.4034115,8.8507808 30.3898264,8.08342437 30.8635047,7.60190739 C30.8734418,7.59180588 30.8835569,7.58187464 30.8938455,7.57211825 L32.6395226,5.85818099 L32.6395225,5.85818104 C33.1216232,5.38499077 33.9031032,5.38499077 34.3851996,5.85818094 L34.3851997,5.85818099 Z" id="路径" fill="url(#linearGradient-5)"></path>
            <path d="M40,19.999983 L40,19.999983 C40,20.6694175 39.4472656,21.2121021 38.765434,21.2121021 L36.2962977,21.2121021 L36.2962977,21.2121021 C35.6144661,21.2121021 35.0617317,20.6694175 35.0617317,19.999983 C35.0617317,19.3305484 35.6144661,18.7878638 36.2962977,18.7878638 L38.765434,18.7878638 L38.7654339,18.7878638 C39.4472655,18.7878638 40,19.3305484 40,19.999983 C40,19.999983 40,19.999983 40,19.999983 L40,19.999983 Z" id="路径" fill="url(#linearGradient-6)"></path>
            <path d="M0,19.999983 L0,19.9999831 C0,19.3305485 0.552734439,18.7878639 1.23456603,18.7878639 C1.23456605,18.7878639 1.23456607,18.7878639 1.23456608,18.7878639 L3.70370236,18.7878639 L3.7037023,18.7878639 C4.3855339,18.7878639 4.93826828,19.3305485 4.93826828,19.9999831 C4.93826828,20.6694177 4.3855339,21.2121022 3.7037023,21.2121022 L1.23456602,21.2121022 L1.23456597,21.2121022 C0.552734374,21.2121022 0,20.6694177 0,19.9999831 L0,19.999983 Z" id="路径" fill="url(#linearGradient-6)"></path>
            <path d="M5.57777783,5.85818099 L5.57777776,5.85818106 C6.05987846,5.38499078 6.84135849,5.38499078 7.32345484,5.85818092 L9.06913192,7.57211817 L9.06913199,7.57211824 C9.5428082,8.05363521 9.52922747,8.82099164 9.03879232,9.28605549 C8.56036784,9.73973299 7.80187391,9.73973299 7.32344944,9.2860539 L5.57777236,7.57211665 L5.5777724,7.57211669 C5.09581927,7.09878153 5.09581927,6.33151033 5.57777232,5.85817943 L5.57777783,5.85818099 Z" id="路径" fill="url(#linearGradient-7)"></path>
        </g>
    </g>
</svg>