<?xml version="1.0" encoding="UTF-8"?>
<svg width="80px" height="80px" viewBox="0 0 80 80" version="1.1" xmlns="http://www.w3.org/2000/svg" xmlns:xlink="http://www.w3.org/1999/xlink">
    <title>国产平台虚拟化</title>
    <defs>
        <linearGradient x1="7.9658214%" y1="11.0506138%" x2="91.3585263%" y2="91.2885446%" id="linearGradient-1">
            <stop stop-color="#2AC5FF" offset="0%"></stop>
            <stop stop-color="#287CF3" offset="100%"></stop>
        </linearGradient>
        <rect id="path-2" x="0" y="0" width="80" height="80" rx="8"></rect>
        <linearGradient x1="33.3430632%" y1="6.52106584%" x2="55.8923596%" y2="81.4454835%" id="linearGradient-4">
            <stop stop-color="#FFFFFF" stop-opacity="0.2" offset="0%"></stop>
            <stop stop-color="#FFFFFF" stop-opacity="0" offset="100%"></stop>
        </linearGradient>
        <linearGradient x1="62.3987027%" y1="50%" x2="12.6602938%" y2="50%" id="linearGradient-5">
            <stop stop-color="#299DF8" offset="0%"></stop>
            <stop stop-color="#84D6FF" offset="100%"></stop>
        </linearGradient>
    </defs>
    <g id="国产平台虚拟化" stroke="none" stroke-width="1" fill="none" fill-rule="evenodd">
        <g id="椭圆形-+-椭圆形备份-蒙版">
            <mask id="mask-3" fill="white">
                <use xlink:href="#path-2"></use>
            </mask>
            <use id="蒙版" fill="url(#linearGradient-1)" xlink:href="#path-2"></use>
            <circle id="椭圆形" fill="url(#linearGradient-4)" mask="url(#mask-3)" cx="60" cy="55" r="29"></circle>
            <circle id="椭圆形备份" fill-opacity="0.1" fill="#FFFFFF" mask="url(#mask-3)" cx="37.5" cy="81.5" r="12.5"></circle>
        </g>
        <path d="M60.5668604,49.3243243 L20.4324324,49.3243243 L20.4324324,29.0540541 C20.4324324,25 24.4458752,25 24.4458752,25 L56.5541248,25 C56.5541248,25 60.5675676,25 60.5675676,29.0540541 L60.5668604,49.3243243 Z M18,52.3648649 C18,54.1891892 19.9861691,54.1891892 19.9861691,54.1891892 L60.9478239,54.1891892 C60.9478239,54.1891892 63,54.1891892 63,52.3648649 C63,50.5405405 60.9478239,50.5405405 60.9478239,50.5405405 L19.9861691,50.5405405 C19.9861691,50.5405405 18,50.5405405 18,52.3648649 Z M36.7432432,51.7567568 L43.0405405,51.7567568 C43.3166829,51.7567568 43.5405405,51.9806144 43.5405405,52.2567568 L43.5405405,52.472973 C43.5405405,52.7491153 43.3166829,52.972973 43.0405405,52.972973 L36.7432432,52.972973 C36.4671009,52.972973 36.2432432,52.7491153 36.2432432,52.472973 L36.2432432,52.2567568 C36.2432432,51.9806144 36.4671009,51.7567568 36.7432432,51.7567568 Z" id="形状" fill="#FFFFFF" fill-rule="nonzero"></path>
        <path d="M32.8499483,32.5341119 C29.9262993,32.9163891 27.7297297,35.4699305 27.7297297,38.5024429 C27.7297297,41.4692365 29.887538,44.0288368 32.7519539,44.4579485 L32.7709719,44.4594595 L44.5452868,44.4352839 L45.2474897,44.430751 C47.7812699,43.9547957 49.6216216,41.6906038 49.6216216,39.0486749 C49.6216216,36.7527518 48.2120964,34.6925528 46.1106071,33.9068361 C45.1926234,30.7594926 42.4247784,28.6486155 39.2085377,28.6486155 C36.9530486,28.6446323 34.8257662,29.7313214 33.4599958,31.5852347 C35.822614,31.9236933 38.1398842,33.1490906 38.4412475,36.5737113 C38.4419805,36.5737089 37.6227438,33.7920087 32.8499483,32.5341119 Z" id="路径" fill="url(#linearGradient-5)"></path>
    </g>
</svg>