<?xml version="1.0" encoding="UTF-8"?>
<svg width="80px" height="80px" viewBox="0 0 80 80" version="1.1" xmlns="http://www.w3.org/2000/svg" xmlns:xlink="http://www.w3.org/1999/xlink">
    <title>编组 17</title>
    <defs>
        <linearGradient x1="7.9658214%" y1="11.0506138%" x2="91.3585263%" y2="91.2885446%" id="linearGradient-1">
            <stop stop-color="#5FBEF9" offset="0%"></stop>
            <stop stop-color="#427BEB" offset="100%"></stop>
        </linearGradient>
        <rect id="path-2" x="0" y="0" width="80" height="80" rx="8"></rect>
        <linearGradient x1="17.7429342%" y1="19.9048851%" x2="46.2229135%" y2="68.6309161%" id="linearGradient-4">
            <stop stop-color="#FFFFFF" stop-opacity="0.2" offset="0%"></stop>
            <stop stop-color="#FFFFFF" stop-opacity="0" offset="100%"></stop>
        </linearGradient>
        <rect id="path-5" x="0" y="0" width="80" height="80" rx="8"></rect>
    </defs>
    <g id="页面-1" stroke="none" stroke-width="1" fill="none" fill-rule="evenodd">
        <g id="编组-17">
            <g id="椭圆形-+-椭圆形备份-蒙版">
                <g id="蒙版" fill="url(#linearGradient-1)" fill-rule="nonzero">
                    <rect id="path-2" x="0" y="0" width="80" height="80" rx="8"></rect>
                </g>
                <g id="椭圆形-Clipped">
                    <mask id="mask-3" fill="white">
                        <use xlink:href="#path-2"></use>
                    </mask>
                    <g id="path-2"></g>
                    <circle id="椭圆形" fill="url(#linearGradient-4)" fill-rule="nonzero" mask="url(#mask-3)" cx="60" cy="55" r="29"></circle>
                </g>
                <g id="椭圆形备份-Clipped">
                    <mask id="mask-6" fill="white">
                        <use xlink:href="#path-5"></use>
                    </mask>
                    <g id="path-2"></g>
                    <circle id="椭圆形备份" fill-opacity="0.1" fill="#FFFFFF" fill-rule="nonzero" mask="url(#mask-6)" cx="37.5" cy="81.5" r="12.5"></circle>
                </g>
            </g>
            <path d="M40,21 C29.5065898,21 21,29.5065898 21,40 C21,50.4934102 29.5065898,59 40,59 C50.4934102,59 59,50.4934102 59,40 C58.9991787,29.50693 50.49307,21.0008213 40,21 Z M37.2437175,56.9661631 C41.7807675,55.6933016 47.0895455,53.2701096 49.6565412,48.2290443 C49.6565412,48.2290443 54.9105132,39.616854 46.0200874,31.8655863 C46.0200874,31.8655863 48.3056467,35.4604201 48.3767464,39.0804444 C48.3767464,39.0804444 48.9174005,43.8384869 44.7121491,46.8094851 C38.4983311,51.1911518 29.8391398,49.2174014 25.722763,48.0808649 C22.8452937,42.0801804 23.6155002,34.9666131 27.7105923,29.7214295 C28.8585563,35.2603778 30.2285465,39.8865406 31.8194024,41.6024588 C33.9449874,43.8903497 37.0718932,46.3190111 41.0860641,45.3143543 C45.100235,44.3096976 45.9178816,39.9206219 45.9178816,39.9206219 C46.8066279,36.1850177 45.5431269,31.7485246 45.4735085,31.6551715 C45.40389,31.5618184 44.802505,31.456611 44.802505,31.456611 C45.4320336,37.3408175 43.885615,39.9443306 43.885615,39.9443306 C41.6341243,44.5556755 38.3309505,43.130189 38.3309505,43.130189 C34.6604282,41.2557189 34.8337337,35.9775664 34.8337337,35.9775664 C34.7256029,32.4390409 36.0720536,26.6718962 38.6745991,23.094844 C39.2803582,23.0317569 39.8889774,22.9999767 40.4980103,22.9999767 C42.7675,22.9976863 44.9434177,23.6119056 47.0440114,24.4713494 C44.8754704,26.2909932 41.6089432,29.530278 41.6089432,29.530278 C36.1935156,34.5505982 37.2437175,38.7766765 37.2437175,38.7766765 C38.1072827,43.2131695 40.7987028,40.2243898 40.7987028,40.2243898 C43.6219536,37.3052544 43.411617,31.4921741 43.411617,31.4921741 C42.7297639,31.6011337 42.0869179,31.8821328 41.5437685,32.3086429 C41.4045315,36.1850177 39.117491,38.5899703 39.117491,38.5899703 C38.2287447,39.5709184 37.6006973,38.6373878 37.6006973,38.6373878 C37.1341055,37.9364989 38.0672891,37.4519521 38.0672891,37.4519521 C39.3722649,36.3080066 39.7647946,34.3550013 39.7485009,33.6229948 C39.7322072,32.8909882 40.1202931,32.6879824 40.1202931,32.6879824 C41.2693647,31.8086955 42.5057971,31.0499756 43.8100716,30.4238002 C46.2822676,29.162793 48.3767464,28.9523781 48.3767464,28.9523781 C51.0390067,28.4521902 51.8886821,28.7581963 52.2433192,28.9523781 C56.8167537,34.1054382 58.2392575,41.2946583 55.4140673,47.5794218 C52.5888771,53.8641852 47.3864488,57.2017914 40.4980103,57.1988028 C39.3794696,57.1988028 38.3419708,57.1783102 37.2437175,56.9661631 Z" id="形状" fill="#FFFFFF" fill-rule="nonzero"></path>
        </g>
    </g>
</svg>