<?xml version="1.0" encoding="UTF-8"?>
<svg width="19px" height="24px" viewBox="0 0 19 24" version="1.1" xmlns="http://www.w3.org/2000/svg" xmlns:xlink="http://www.w3.org/1999/xlink">
    <!-- Generator: Sketch 49.3 (51167) - http://www.bohemiancoding.com/sketch -->
    <title>remen-2</title>
    <desc>Created with Sketch.</desc>
    <defs></defs>
    <g id="Page-1" stroke="none" stroke-width="1" fill="none" fill-rule="evenodd">
        <g id="论坛-首页" transform="translate(-434.000000, -548.000000)" fill="#FF3700" fill-rule="nonzero">
            <g id="社区热帖" transform="translate(410.000000, 528.000000)">
                <g id="标题" transform="translate(0.000000, 20.000000)">
                    <g id="remen-2" transform="translate(24.000000, 0.000000)">
                        <path d="M7.04784566,24 C7.04784566,24 -3.46686043,21.659 1.2324105,10.04 C1.2324105,10.04 2.29965517,11.33 2.15289655,11.952 C2.15289655,11.952 2.98952053,9.01900001 4.79455172,7.26700001 C6.34500163,5.76199999 7.9204105,1.52899999 6.46680132,0 C6.46680132,0 13.6619672,1.53 14.4636486,9.18 C14.4636486,9.18 15.3831363,6.74200001 17.2730279,6.49999999 C17.2730279,6.49999999 16.6919836,7.83999998 17.2730279,9.85000001 C17.2730279,9.85000001 23.2322266,20.175 12.9611199,23.665 C12.9611199,23.665 16.0400558,20.127 9.51079474,14.055 C9.51079474,14.055 7.97132676,17.306 7.05084073,18.453 C7.04784566,18.455 4.48006897,21.37 7.04784566,24 Z" id="Shape"></path>
                    </g>
                </g>
            </g>
        </g>
    </g>
</svg>