<?xml version="1.0" encoding="UTF-8"?>
<svg width="14px" height="14px" viewBox="0 0 14 14" version="1.1" xmlns="http://www.w3.org/2000/svg" xmlns:xlink="http://www.w3.org/1999/xlink">
    <title>通知</title>
    <g id="首页、版块、发帖" stroke="none" stroke-width="1" fill="none" fill-rule="evenodd">
        <g id="论坛-首页" transform="translate(-384.000000, -443.000000)" fill="#FFFFFF" fill-rule="nonzero">
            <g id="滚动提示" transform="translate(360.000000, 430.000000)">
                <g id="通知" transform="translate(24.000000, 13.000000)">
                    <path d="M8.69586074,13.084279 C8.47717447,13.084279 8.25953492,13.0183663 8.07292099,12.888632 L3.2471058,9.54638409 L1.36768702,9.54638409 C0.768862432,9.54638409 0.281906045,9.06382834 0.281906045,8.47068777 L0.281906045,4.70578865 C0.281906045,4.11266298 0.768863936,3.63009233 1.36768702,3.63009233 L3.24606811,3.63009233 L3.51115295,3.45833952 L8.07292701,0.287866793 C8.40640357,0.0564985092 8.83742059,0.0282626598 9.19767423,0.21419508 C9.55845274,0.400005474 9.7824478,0.765696302 9.7824478,1.16842107 L9.7824478,12.007912 C9.7824478,12.4106368 9.55845274,12.7762054 9.19741255,12.962138 C9.03914579,13.0438296 8.86710623,13.084279 8.69586675,13.084279 L8.69586074,13.084279 Z M1.36767048,4.70579461 L1.36767048,8.47070863 L3.40775927,8.47070863 L3.40775928,8.47070863 C3.51278214,8.47071635 3.61554673,8.50091045 3.70359302,8.55762978 L4.10652306,8.81709684 L8.69667586,12.007937 L8.69667586,1.16844611 L4.12002815,4.34876734 L3.70490894,4.61808439 L3.70490894,4.61808439 C3.6165736,4.67532877 3.51330655,4.705811 3.40775176,4.70579833 L1.36767048,4.70579833 L1.36767048,4.70579461 Z" id="形状"></path>
                    <path d="M12.8056954,10.106442 L11.6446438,9.410217 C12.1064083,8.65413512 12.3608905,7.6722022 12.3608905,6.64536548 C12.3608905,5.56863217 12.0846783,4.55214904 11.5831475,3.783206 L12.7229925,3.05337984 C13.3647537,4.03715432 13.7181134,5.31282887 13.7181134,6.64537144 C13.7181134,7.91422803 13.3941776,9.14341944 12.8056954,10.106442 L12.8056954,10.106442 Z" id="路径"></path>
                </g>
            </g>
        </g>
    </g>
</svg>