<?xml version="1.0" encoding="UTF-8"?>
<svg width="15px" height="15px" viewBox="0 0 15 15" version="1.1" xmlns="http://www.w3.org/2000/svg" xmlns:xlink="http://www.w3.org/1999/xlink">
    <title>收 藏</title>
    <g id="Page-1" stroke="none" stroke-width="1" fill="none" fill-rule="evenodd">
        <g id="首页/版块-帖子详情" transform="translate(-612.000000, -795.000000)" fill="#97A3B4" fill-rule="nonzero">
            <g id="版块内容" transform="translate(362.000000, 161.000000)">
                <g id="正文" transform="translate(31.000000, 163.000000)">
                    <g id="收藏" transform="translate(219.000000, 471.000000)">
                        <g id="收-藏">
                            <path d="M11.2761683,14.3646334 C11.1153989,14.3646334 10.9292448,14.3138642 10.776937,14.2292487 L7.34154835,12.5115544 L3.88077509,14.2292487 C3.53385161,14.4154027 3.08538955,14.3900181 2.77231226,14.1530947 C2.45077343,13.9161714 2.27308091,13.493094 2.34923485,13.0954012 L3.0600049,9.38924304 L0.335386348,6.85077855 C0.0476937058,6.5630859 -0.0623064222,6.10616229 0.0476937058,5.74231572 C0.183078479,5.34462295 0.496155766,5.0569303 0.919233182,4.99769947 L4.70154528,4.31231405 L6.39385494,0.87692544 C6.580009,0.504617314 6.95231712,0.267693962 7.3500099,0.267693962 C7.74770267,0.267693962 8.14539544,0.504617314 8.30616485,0.87692544 L9.99847452,4.31231405 L13.7807866,4.97231482 C14.1784794,5.02308411 14.5169413,5.3192383 14.6269414,5.71693107 C14.7623262,6.11462384 14.6523261,6.53770126 14.3646334,6.8253939 L11.6400149,9.38924304 L12.3254003,13.0954012 C12.4015542,13.5184786 12.2154002,13.9161714 11.9023229,14.1530947 C11.7246304,14.2884795 11.5130917,14.3646334 11.2761683,14.3646334 Z" id="路径"></path>
                        </g>
                    </g>
                </g>
            </g>
        </g>
    </g>
</svg>