<?xml version="1.0" encoding="UTF-8"?>
<svg width="25px" height="24px" viewBox="0 0 25 24" version="1.1" xmlns="http://www.w3.org/2000/svg" xmlns:xlink="http://www.w3.org/1999/xlink">
    <!-- Generator: Sketch 49.3 (51167) - http://www.bohemiancoding.com/sketch -->
    <title>fabu</title>
    <desc>Created with Sketch.</desc>
    <defs></defs>
    <g id="Page-1" stroke="none" stroke-width="1" fill="none" fill-rule="evenodd">
        <g id="论坛-首页" transform="translate(-1355.000000, -226.000000)" fill="#FFFFFF" fill-rule="nonzero">
            <g id="版块推荐" transform="translate(1230.000000, 178.000000)">
                <g id="推荐">
                    <g id="发布按钮" transform="translate(95.000000, 32.000000)">
                        <g id="fabu" transform="translate(30.000000, 16.000000)">
                            <path d="M24.2313431,0.75712334 C23.1552234,-0.352401771 21.4641783,-0.193898184 20.3880586,0.915626927 L9.93432476,11.6938709 C9.93432476,11.8523744 9.78059338,11.8523744 9.78059338,12.010878 L8.39701096,15.9734677 C8.24327958,16.2904749 8.39701096,16.7659857 8.55074234,17.0829928 C8.70447372,17.2414964 9.01193648,17.4 9.16566786,17.4 L9.47313062,17.4 L13.3164151,15.9734677 C13.4701465,15.9734677 13.6238779,15.8149641 13.6238779,15.8149641 L24.0776117,5.0367202 C24.6925372,4.24420226 25,3.45168432 25,2.65916639 C25,2.02515204 24.6925372,1.39113769 24.2313431,0.75712334 Z" id="Shape"></path>
                            <path d="M22.2416797,11.9532211 L21.1374828,11.9532211 C20.9797404,11.9532211 20.821998,12.1117314 20.821998,12.2702416 L20.821998,18.6106516 C20.821998,20.5127745 19.2445739,22.097877 17.351665,22.097877 L5.36324191,22.097877 C3.470333,22.097877 1.89290891,20.5127745 1.89290891,18.6106516 L1.89290891,7.03940344 C1.89290891,5.13728046 3.470333,3.55217798 5.36324191,3.55217798 L15.7742409,3.55217798 C15.9319833,3.55217798 16.0897257,3.39366773 16.0897257,3.23515748 L16.0897257,2.12558574 C16.0897257,1.96707549 15.9319833,1.80856525 15.7742409,1.80856525 L4.73227227,1.80856525 C2.05065132,1.650055 0,3.71068822 0,6.40536245 L0,19.4032028 C0,21.9393668 2.05065132,24 4.57452987,24 L17.9826346,24 C20.5065132,24 22.5571645,21.9393668 22.5571645,19.4032028 L22.5571645,12.2702416 C22.7149069,12.1117314 22.5571645,11.9532211 22.2416797,11.9532211 Z" id="Shape"></path>
                        </g>
                    </g>
                </g>
            </g>
        </g>
    </g>
</svg>