<?xml version="1.0" encoding="UTF-8"?>
<svg width="24px" height="24px" viewBox="0 0 24 24" version="1.1" xmlns="http://www.w3.org/2000/svg" xmlns:xlink="http://www.w3.org/1999/xlink">
    <title>银牌</title>
    <g id="银牌" stroke="none" stroke-width="1" fill="none" fill-rule="evenodd">
        <rect id="矩形" x="0" y="0" width="24" height="24"></rect>
        <path d="M18.1625799,8.50921191 L5.83185362,8.50921191 L5.83185362,1.70628987 C5.83231026,1.50683444 5.99388723,1.34525748 6.19334265,1.34480084 L17.8010909,1.34480084 C18.0005733,1.34519249 18.1621882,1.50680744 18.1625799,1.70628987 L18.1625799,8.50921191 L18.1625799,8.50921191 Z" id="路径" fill="#FFECC3" fill-rule="nonzero"></path>
        <path d="M5.78181818,1.30909091 L8.73174822,1.30909091 L8.73174822,7.85454545 L5.78181818,7.85454545 L5.78181818,1.30909091 Z M10.4704895,1.30909091 L13.4204196,1.30909091 L13.4204196,7.85454545 L10.4704895,7.85454545 L10.4704895,1.30909091 Z M15.1591609,1.30909091 L18.1090909,1.30909091 L18.1090909,7.85454545 L15.1592795,7.85454545 L15.1592795,1.30909091 L15.1591609,1.30909091 Z" id="形状" fill="#FF440B" fill-rule="nonzero"></path>
        <path d="M3.05454545,13.9628897 C3.070354,18.7867212 6.97126058,22.6892767 11.7788765,22.6909091 C16.5864924,22.6925405 20.4900296,18.792634 20.5090909,13.9688144 L20.5090909,13.9628897 C20.4924626,9.13909972 16.590953,5.2372277 11.7833755,5.23636364 C6.97579803,5.23549986 3.07289576,9.13596942 3.05454545,13.9597531 L3.05454545,13.9628897 Z" id="路径" fill="#DBDBDB" fill-rule="nonzero"></path>
        <path d="M5.23670412,13.963424 C5.23670412,16.6108277 6.831403,18.9975684 9.27728959,20.010675 C11.7231762,21.0237816 14.5385075,20.4637317 16.4104545,18.5916845 C18.2824015,16.7196374 18.8423008,13.9042761 17.8290633,11.4584437 C16.8158258,9.01261132 14.4289997,7.41799294 11.7815961,7.41818182 C8.1668954,7.41837524 5.23670412,10.3487233 5.23670412,13.963424 Z" id="路径" fill="#B7B7B7" fill-rule="nonzero"></path>
        <g id="1" transform="translate(8.26, 9.38)" fill="#FFFFFF" fill-rule="nonzero">
            <g id="2">
                <path d="M6.986,2.464 C6.986,1.064 6.104,0 4.48,0 C2.758,0 1.484,0.84 1.12,2.814 L2.856,2.814 C3.08,1.82 3.71,1.554 4.284,1.554 C4.83,1.554 5.236,1.876 5.236,2.534 C5.236,3.136 4.928,3.5 3.906,4.312 L0.308,7.168 L0,8.722 L6.034,8.722 L6.356,7.168 L2.758,7.168 L4.844,5.46 C6.3,4.27 6.986,3.528 6.986,2.464 Z" id="路径"></path>
            </g>
        </g>
    </g>
</svg>