<?xml version="1.0" encoding="UTF-8"?>
<svg width="15px" height="12px" viewBox="0 0 15 12" version="1.1" xmlns="http://www.w3.org/2000/svg" xmlns:xlink="http://www.w3.org/1999/xlink">
    <title>pinglun-5</title>
    <g id="Page-1" stroke="none" stroke-width="1" fill="none" fill-rule="evenodd">
        <g id="论坛-首页" transform="translate(-1177.000000, -682.000000)" fill-rule="nonzero">
            <g id="帖子列表" transform="translate(360.000000, 640.000000)">
                <g id="编组-6" transform="translate(24.000000, 0.000000)">
                    <g id="编组-5备份-6" transform="translate(75.000000, 40.000000)">
                        <g id="Group-2" transform="translate(643.000000, 0.000000)">
                            <g id="pinglun-5" transform="translate(75.000000, 2.000000)">
                                <path d="M2.81390821,0.0066759388 C1.2650904,0.0066759388 0.0066759388,1.24005563 0.0066759388,2.75549374 L0.0066759388,7.8876217 C0.0066759388,8.63866481 0.211961057,9.28623088 0.599165508,9.75688456 C1.03143255,10.2826147 1.66063978,10.5613352 2.42002782,10.5613352 L3.16105702,10.5613352 L4.44617524,11.8464534 C4.54464534,11.9449235 4.67148818,11.9933241 4.8,11.9933241 C4.92851182,11.9933241 5.05702364,11.9449235 5.15382476,11.8464534 L6.43894298,10.5613352 L11.9532684,10.5613352 C12.6759388,10.5613352 13.4052851,10.249235 13.9527121,9.70514604 C14.511822,9.14937413 14.832267,8.40834492 14.832267,7.67065369 L14.832267,2.75382476 C14.832267,2.0178025 14.5452017,1.32684284 14.0261474,0.812795549 C13.5054242,0.297079277 12.8077886,0.0133518776 12.0600834,0.0133518776 L2.81390821,0.0066759388 Z" id="Shape" fill="#A9B3C1"></path>
                                <path d="M7.418637,4.31766342 C7.02475661,4.31766342 6.70431154,4.63810848 6.70431154,5.03198887 C6.70431154,5.42586926 7.02475661,5.74631433 7.418637,5.74631433 C7.81251739,5.74631433 8.13296245,5.42586926 8.13296245,5.03198887 C8.13296245,4.63810848 7.81251739,4.31766342 7.418637,4.31766342 L7.418637,4.31766342 Z M4.56133519,4.31766342 C4.1674548,4.31766342 3.84700974,4.63810848 3.84700974,5.03198887 C3.84700974,5.42586926 4.1674548,5.74631433 4.56133519,5.74631433 C4.95521558,5.74631433 5.27566064,5.42586926 5.27566064,5.03198887 C5.27566064,4.63810848 4.95688456,4.31766342 4.56133519,4.31766342 Z M10.2759388,4.31766342 C9.88205841,4.31766342 9.56161335,4.63810848 9.56161335,5.03198887 C9.56161335,5.42586926 9.88205841,5.74631433 10.2759388,5.74631433 C10.6698192,5.74631433 10.9902643,5.42586926 10.9902643,5.03198887 C10.9885953,4.63810848 10.6698192,4.31766342 10.2759388,4.31766342 Z" id="Shape" fill="#FFFFFF"></path>
                            </g>
                        </g>
                    </g>
                </g>
            </g>
        </g>
    </g>
</svg>