<?xml version="1.0" encoding="UTF-8"?>
<svg width="19px" height="12px" viewBox="0 0 19 12" version="1.1" xmlns="http://www.w3.org/2000/svg" xmlns:xlink="http://www.w3.org/1999/xlink">
    <title>浏览</title>
    <g id="Page-1" stroke="none" stroke-width="1" fill="none" fill-rule="evenodd">
        <g id="论坛-首页" transform="translate(-1102.000000, -682.000000)" fill="#A9B3C1" fill-rule="nonzero">
            <g id="帖子列表" transform="translate(360.000000, 640.000000)">
                <g id="编组-6" transform="translate(24.000000, 0.000000)">
                    <g id="编组-5备份-6" transform="translate(75.000000, 40.000000)">
                        <g id="Group-2" transform="translate(643.000000, 0.000000)">
                            <g id="浏览" transform="translate(0.000000, 2.000000)">
                                <g id="形状">
                                    <path d="M6.70898167,5.76770345 L6.70898167,5.76759047 C6.70917622,6.09286938 6.77426095,6.41484031 6.90042583,6.71465517 L6.90042584,6.71465521 C7.02708111,7.01726522 7.21253937,7.29172649 7.44605055,7.52213257 L7.44605068,7.5221327 C7.68118146,7.75243284 7.9589924,7.93463609 8.26391066,8.05852889 L8.26391089,8.05852898 C8.88224895,8.30988404 9.5742956,8.30988404 10.1926325,8.0585288 L10.1926323,8.0585289 C10.4975359,7.93461017 10.7753423,7.75240917 11.0104923,7.52213271 L11.0104923,7.52213268 C11.2439798,7.29170744 11.4294336,7.01724955 11.556117,6.71465532 L11.556117,6.71465528 C11.8119917,6.10920872 11.8119917,5.42598934 11.556117,4.82054616 L11.556117,4.82054603 C11.4294617,4.51793602 11.2440034,4.24347476 11.0104923,4.01306868 L11.0104922,4.01306867 C10.7753434,3.7827922 10.497537,3.6005912 10.1926323,3.47667247 L10.1926321,3.47667241 C9.57429404,3.22531735 8.88224739,3.22531735 8.26391045,3.47667253 L8.26391064,3.47667246 C7.95897885,3.60053821 7.68116341,3.78274485 7.44605178,4.01306752 L7.44605166,4.01306764 C7.21249314,4.24343428 7.02702925,4.51790681 6.90042696,4.820545 L6.90042701,4.82054488 C6.77424962,5.12038904 6.70916543,5.44239379 6.70898167,5.76770539 L6.70898167,5.76770345 Z M18.29398,5.17017009 C18.29398,5.17017009 18.2835982,4.93946195 16.0630327,2.89539074 C12.8884966,0.198419638 10.0588572,-0.189170845 7.9536466,0.0669123028 L7.95364675,0.0669122811 C6.59213783,0.261557339 5.28993569,0.752592069 4.13889711,1.50537802 L4.1388972,1.50537795 C2.67637964,2.5512163 1.33737845,3.75979103 0.147658588,5.10787646 L0.147658603,5.10787643 C-0.0726116759,5.63758117 -0.0173634922,6.24185106 0.295311315,6.72283114 C0.295311315,6.72283114 4.84949104,11.533094 8.988388,11.533094 L8.98838828,11.533094 C11.5163993,11.6351249 13.9907163,10.7851072 15.922312,9.15103949 L15.9223114,9.15104005 C16.8032764,8.4175057 17.5988495,7.58710811 18.2939855,6.67553957 L18.2939856,6.67553942 C18.5070042,6.19555343 18.5070042,5.64784927 18.2939855,5.16785989 L18.29398,5.17017009 Z M9.22831424,9.92274916 L9.22831429,9.92274917 C6.93521994,9.88006462 5.11088815,7.98653245 5.15358182,5.69343809 C5.19626636,3.40034374 7.08979854,1.57601195 9.38289289,1.61870562 C11.64559,1.66082426 13.4579522,3.50692013 13.4583468,5.7700117 L13.4583468,5.77000096 C13.4361571,8.08447596 11.5428232,9.94322868 9.22832566,9.92274969 L9.22831424,9.92274916 Z"></path>
                                </g>
                            </g>
                        </g>
                    </g>
                </g>
            </g>
        </g>
    </g>
</svg>