<?xml version="1.0" encoding="UTF-8"?>
<svg width="20px" height="20px" viewBox="0 0 20 20" version="1.1" xmlns="http://www.w3.org/2000/svg" xmlns:xlink="http://www.w3.org/1999/xlink">
    <title>top-icon </title>
    <g id="首页、版块、发帖" stroke="none" stroke-width="1" fill="none" fill-rule="evenodd">
        <g id="top-icon-" fill-rule="nonzero">
            <g id="zhiding-2">
                <path d="M18,20 L2.16216216,20 L2.16216216,20 C0.945945946,20 0,18.9552239 0,17.6119403 L0,2.3880597 C0,1.04477612 0.945945946,0 2.16216216,0 L18,0 C19.1045695,-2.02906125e-16 20,0.8954305 20,2 L20,18 C20,19.1045695 19.1045695,20 18,20 Z" id="Shape" fill="#FF3700"></path>
                <path d="M4.87726638,10.9944142 L5.90074383,12.0144329 L9.11738723,8.80865975 L9.11738723,15.9487909 L10.5794979,15.9487909 L10.5794979,8.80865975 L13.7961413,12.0144329 L14.8196187,10.9944142 L9.84844254,5.89432051 L4.87726638,10.9944142 L4.87726638,10.9944142 Z M4,4 L15.9893072,4 L15.9893072,5.45716962 L4,5.45716962 L4,4 Z" id="Shape" fill="#FFFFFF"></path>
            </g>
        </g>
    </g>
</svg>