<svg width="485" height="175" xmlns="http://www.w3.org/2000/svg"><g fill="none" fill-rule="evenodd"><g fill="#FFF" fill-rule="nonzero"><path d="M.51 81c1.07-.24 2.19-.675 3.36-1.305a11.135 11.135 0 0 0 3.143-2.542c.924-1.065 1.492-2.317 1.703-3.757l1.333-9.089c2.387-.96 4.696-2.1 6.928-3.42l-1.639-3.33a46.052 46.052 0 0 1-4.655 2.43l1.234-8.413h5.496L18 47.569h-5.495L13.468 41H9.613l-.964 6.57H2.667l-.588 4.004h5.983L6.59 61.607c-1.81.66-4.007 1.335-6.59 2.025l.325 3.825a93.838 93.838 0 0 0 5.651-1.665l-1.115 7.604c-.31 1.71-1.869 2.97-4.676 3.78L.51 81zM19 81c1.496-.206 3.059-.602 4.688-1.19a13.597 13.597 0 0 0 4.327-2.51c1.257-1.087 2.003-2.408 2.239-3.964l3.854-25.416h8.297L43 44H19.947l-.595 3.92h10.81l-3.855 25.416c-.111.734-.628 1.38-1.55 1.938s-1.93.99-3.023 1.3c-1.093.308-1.958.491-2.595.55L19 81zm70.402-23L90 54.018H78.008l.705-4.697h10.144l.597-3.982H79.311l.637-4.25h-3.922l-.638 4.25h-4.192a77.715 77.715 0 0 0 1.802-2.997L69.458 41a44.655 44.655 0 0 1-3.583 5.547 24.796 24.796 0 0 1-4.265 4.385l2.165 2.997a28.864 28.864 0 0 0 4.569-4.608h6.447l-.705 4.697H61.598L61 58h28.402zm-31.146-7L62 48.691 58.737 42 55 44.262 58.256 51zM47.831 80c2.513-1.054 4.555-2.423 6.128-4.109.756 1.084 1.74 1.964 2.954 2.642 1.213.677 2.675 1.015 4.385 1.015H86.42l.58-3.973H61.878a5.183 5.183 0 0 1-3.51-1.106c-1.033-.798-1.696-1.813-1.988-3.048.052-.15.1-.376.143-.677l2.306-15.803c.079-.541-.046-1-.374-1.377-.328-.376-.758-.564-1.289-.564h-6.06l-.572 3.928h4.113l-2.016 13.816c-.384 2.228-2.26 4.079-5.631 5.554L47.83 80zm34.627-7c.522 0 .993-.189 1.412-.567.419-.378.667-.829.745-1.352l1.361-9.162c.078-.523-.036-.974-.343-1.352-.306-.378-.72-.567-1.243-.567H66.542c-.522 0-.993.189-1.412.567-.419.378-.667.829-.745 1.352l-1.361 9.162c-.078.523.036.974.343 1.352.306.378.72.567 1.243.567h17.848zm-1.253-4H67l.795-5H82l-.795 5zm16.21 11c1.758-.44 3.472-1.29 5.144-2.55 1.671-1.26 2.66-2.887 2.965-4.88l1.443-9.41a38.577 38.577 0 0 0 4.479-2.946l-2.128-2.946c-.546.41-1.087.792-1.623 1.143l1.098-7.166h3.62l.587-3.826h-3.62l.984-6.419h-3.983l-.984 6.42h-3.982l-.587 3.825h3.983l-1.49 9.717c-1.794.879-3.423 1.568-4.887 2.066l.798 3.65c1.304-.44 2.445-.894 3.422-1.363l-1.112 7.254c-.303 1.583-1.817 2.8-4.542 3.65L97.416 80zm36.425-28c.532 0 1.021-.202 1.465-.605.445-.404.706-.875.786-1.413l.886-6.009c.08-.538-.045-1.001-.372-1.39-.328-.389-.758-.583-1.29-.583h-16.161c-.533 0-1.02.194-1.462.583-.443.389-.703.852-.783 1.39l-.886 6.01c-.079.537.044 1.008.37 1.412.324.403.753.605 1.286.605h16.16zm-1.166-4H120l.326-2H133l-.326 2zm-11.861 16c.55 0 1.032-.193 1.448-.578.415-.385.662-.855.74-1.41l.975-6.978c.078-.555-.036-1.033-.342-1.433-.305-.4-.733-.601-1.283-.601h-8.158c-.521 0-.998.2-1.43.6-.432.401-.687.879-.764 1.434l-.976 6.979c-.078.554.044 1.024.367 1.41.322.384.743.577 1.264.577h8.159zm14 0c.522 0 .997-.193 1.427-.578.43-.385.684-.855.761-1.41l.976-6.978c.078-.555-.043-1.033-.363-1.433-.32-.4-.741-.601-1.262-.601h-8.202c-.52 0-.99.2-1.408.6-.417.401-.665.879-.743 1.434l-.976 6.979c-.077.554.038 1.024.346 1.41.308.384.722.577 1.243.577h8.202zm-15.238-4H115l.425-3H120l-.425 3zm14 0H129l.425-3H134l-.425 3zm3.676 17.627a13.971 13.971 0 0 1-3.424-3.53 12.737 12.737 0 0 1-1.944-4.565h5.536l.581-3.958h-11.959l.231-1.574h-3.897l-.231 1.574H110.23l-.581 3.958h5.138a20.584 20.584 0 0 1-3.33 4.587A20.36 20.36 0 0 1 107 77.627l1.55 3.328c2.226-1.29 4.246-2.93 6.059-4.925 1.813-1.993 3.23-4.16 4.253-6.498h2.701l-1.616 11.018h3.898l1.616-11.018h2.259c.361 2.368 1.142 4.542 2.343 6.52A16.15 16.15 0 0 0 134.719 81l2.532-3.373zM153.899 80l4.404-29.865A28.358 28.358 0 0 0 163 40.36l-3.827-.36c-.834 3.033-2.214 5.84-4.141 8.423S150.76 52.988 148 54.37l1.317 3.469a22.842 22.842 0 0 0 4.337-2.793L149.974 80h3.925zm16.88-1l1.276-8.54h12.93l.571-3.83h-12.93l1.164-7.79h12.047l.572-3.83h-12.047l1.077-7.219h13.99l.571-3.83h-17.872a34.902 34.902 0 0 0 1.389-3.389l-3.71-.572a23.634 23.634 0 0 1-3.472 6.405A21.395 21.395 0 0 1 161 51.4l1.784 3.125c2.662-1.673 4.998-3.918 7.007-6.735h1.81L166.94 79h3.839zm38.034 1c1.215-.118 2.487-.412 3.816-.882a10.353 10.353 0 0 0 3.53-2.096c1.023-.926 1.635-2.051 1.836-3.375l1.177-7.765c3.736-.147 7.165-.647 10.289-1.5l1.298 2.692L234.442 65l-4.447-9.176-3.632 2.029 1.464 3.088c-2.892.706-6.394 1.088-10.505 1.147h-7.59c6.86-3.176 14.28-7.19 22.262-12.044l-1.764-3.176c-5.066 3-9.116 5.323-12.15 6.97l-8.345-1.544a169.549 169.549 0 0 0 10.644-6.22h8.31c2.669-.03 5.773-.456 9.311-1.28L237.632 41a74.727 74.727 0 0 1-4.49.882c-1.29.206-2.58.324-3.871.353H202.5l-.581 3.839h11.453c-3.516 2.058-6.801 3.779-9.855 5.161-.356.177-.655.42-.897.728a2.19 2.19 0 0 0-.449 1.037l-.04.265c-.067.44.029.845.288 1.213.258.368.608.58 1.048.64l8.863 1.676a125.589 125.589 0 0 1-11.715 4.985 2.166 2.166 0 0 0-1.002.684 2.21 2.21 0 0 0-.53 1.125l-.06.397c-.08.53.038.986.354 1.368.317.382.744.573 1.283.573h14.597l-1.17 7.721c-.098.647-.737 1.206-1.916 1.677-1.18.47-2.24.75-3.182.838L208.813 80zm-9.754-1c3.72-2.765 7.034-6.147 9.941-10.147L205.892 67c-2.574 3.53-5.538 6.53-8.892 9l2.06 3zM234 76c-2.598-2.441-4.697-5.441-6.298-9L224 68.853c1.746 3.97 4.084 7.353 7.015 10.147L234 76zm19.361-8c1.997-.03 4.274-.536 6.83-1.518l-1.075-3.573c-1.806.744-3.53 1.131-5.17 1.161h-1.74a94.337 94.337 0 0 0 5.3-6.386 179.292 179.292 0 0 0 5.494-7.68l-3.266-1.742c-2.126 3.096-3.766 5.418-4.919 6.966l-2.486-.982a56.91 56.91 0 0 0 4.268-5.739 176.48 176.48 0 0 0 4.326-7.033L257.483 40c-1.143 2.084-2.633 4.503-4.47 7.257-1.838 2.754-3.413 4.74-4.725 5.962a2.358 2.358 0 0 0-.69 1.34l-.107.714c-.062.417-.006.789.169 1.116.174.328.446.55.815.67l3.7 1.518c-1.776 2.144-3.528 4.02-5.255 5.627-.478.417-.755.878-.83 1.385l-.067.446c-.08.536.045.997.374 1.384.33.387.762.581 1.297.581h5.667zm5.506 11c2.716-1.912 5.026-4.066 6.931-6.463 1.906-2.397 3.081-4.963 3.526-7.699l.715-4.72h4.088L272.06 73.75c-.073.676.023 1.375.288 2.096.265.72.728 1.323 1.388 1.808.66.486 1.514.728 2.562.728h3.683c.928 0 1.82-.257 2.677-.772.856-.514 1.577-1.073 2.163-1.676.585-.603.958-1.037 1.118-1.302l-3.074-1.94a9.437 9.437 0 0 1-1.22 1.234c-.482.412-.843.618-1.082.618h-3.683c-.629 0-.927-.309-.893-.926l2.074-13.677a27.86 27.86 0 0 0 3.559-.662l.728 2.603 3.859-1.456a238.028 238.028 0 0 0-3.246-10.588l-3.827 1.544 1.41 4.324a25.17 25.17 0 0 1-5.431.573h-8.444c3.026-2.97 5.35-5.955 6.972-8.955h14.777l.582-3.839h-11.273L277.042 40l-3.863 1.191.415 2.294h-10.869l-.582 3.839h7.231c-2.008 3.176-4.707 6.161-8.095 8.955-.481.412-.762.883-.843 1.412l-.073.485c-.085.56.032 1.023.35 1.39.32.368.763.552 1.332.552h4.042l-.716 4.72c-.67 3.824-3.46 7.515-8.371 11.074L258.867 79zm-12.717-2c2.006 0 4.136-.174 6.389-.523A24.462 24.462 0 0 0 259 74.545L257.815 71c-3.136 1.364-6.815 2.045-11.038 2.045-.839 0-1.466-.015-1.88-.045L244 76.955c.06 0 .231.007.513.022.22.012.599.02 1.137.022l.5.001zM321 79c1.41-.12 2.94-.472 4.587-1.056a12.76 12.76 0 0 0 4.422-2.673c1.301-1.198 2.089-2.711 2.364-4.538L337 40h-3.997l-4.627 30.733c-.298 1.378-1.108 2.381-2.429 3.01-1.32.63-2.877 1.063-4.67 1.303L321 79zm-2.852-23L321 52.964c-1.239-1.31-2.265-2.827-3.078-4.553-.814-1.726-1.613-3.795-2.4-6.206-.089-.387-.28-.684-.57-.892a1.681 1.681 0 0 0-1.005-.313h-6.26c-.41 0-.8.119-1.17.357-.37.238-.642.55-.815.938-2.587 4.523-5.488 8.095-8.702 10.714l2.153 2.946a33.471 33.471 0 0 0 5.32-5.401c1.562-1.994 2.862-3.855 3.902-5.58h3.766c1.923 5.416 3.926 9.091 6.007 11.026zm5.795 15L328 44h-3.943L320 71h3.943zm-13.932 7.999c1.51.03 2.985-.409 4.423-1.316A11.73 11.73 0 0 0 318 74.189l-3.333-1.724a6.28 6.28 0 0 1-1.793 1.815c-.724.484-1.48.726-2.267.726h-7.317c-.97 0-1.395-.5-1.277-1.498l2.471-16.56h8.726l-.968 6.488a2.577 2.577 0 0 1-1.031 1.429 4.542 4.542 0 0 1-1.537.703c-.518.121-1.243.257-2.174.409l-.323 3.992c1.195-.09 2.441-.37 3.738-.839a10.198 10.198 0 0 0 3.473-2.11c1.019-.938 1.637-2.132 1.853-3.584l1.26-8.44c.085-.574-.041-1.05-.378-1.429-.338-.378-.78-.567-1.325-.567h-12.68c-.575 0-1.08.19-1.516.567a2.281 2.281 0 0 0-.78 1.43l-2.762 18.511a5.702 5.702 0 0 0 .195 2.496c.253.847.745 1.558 1.477 2.132.733.575 1.72.863 2.962.863h7.317zM367.418 47l.582-3.854h-8.136L359.665 40l-3.94.797.139 2.349h-7.282L348 47h19.418zm10.732 33l3.245-22.24h3.872l.57-3.907h-13.05l.966-6.615h6.655c2.088 0 4.285-.65 6.592-1.953L385.348 42c-1.492.888-2.95 1.332-4.37 1.332h-8.569c-.522 0-1 .192-1.432.577-.433.385-.689.843-.767 1.376l-3.44 23.572c-.414 2.842-1.671 5.89-3.77 9.145l3.02 1.954c2.492-3.759 4.018-7.458 4.578-11.099l1.62-11.098h5.35L374.322 80h3.828zm-29.303 1c.978-.15 2.04-.52 3.187-1.106 1.147-.587 2.188-1.415 3.122-2.483.934-1.068 1.51-2.34 1.729-3.815l1.287-8.712h7.213l.587-3.973h-7.213l.5-3.386h8.154l.587-3.972h-3.987l1.998-4.424L362.415 48l-2.523 5.553h-5.197L353.814 48l-3.885 1.129.69 4.424h-4.032L346 57.525h9.363l-.5 3.386h-8.243l-.588 3.973h8.243l-1.288 8.712c-.138.933-.632 1.7-1.482 2.303a7.948 7.948 0 0 1-2.897 1.264l.239 3.837zm11.52-5L364 74.43 361.713 66 358 67.525 360.367 76zm-14.492 2a28.701 28.701 0 0 0 2.817-4.736A59.88 59.88 0 0 0 351 67.61L347.357 67a65.412 65.412 0 0 1-1.988 4.933A22.329 22.329 0 0 1 343 75.948L345.875 78zm86.004 1l.57-3.826h-16.845l1.644-11.04h13.898l.577-3.87h-13.898l1.513-10.16h15.086l.576-3.87h-15.085l.76-5.102h-3.827l-.76 5.102h-8.708c1.074-1.7 1.853-2.99 2.336-3.87L406.356 41c-3.368 5.688-6.968 10.365-10.798 14.03l2.429 2.595c2.321-2.2 4.542-4.706 6.661-7.52h10.864l-1.513 10.159h-13.634l-.577 3.87h13.634l-1.644 11.04H393.57L393 79h38.88zm52.112-18.752c-2.224-.677-4.526-1.568-6.907-2.671-2.381-1.104-4.446-2.355-6.195-3.753-1.749-1.398-2.783-2.803-3.102-4.216h16.641l.572-3.84h-16.906l.71-4.768h-3.884l-.71 4.768h-16.906l-.572 3.84h16.641c-.74 1.413-2.199 2.811-4.376 4.194-2.178 1.384-4.616 2.634-7.313 3.753-2.697 1.118-5.258 2.016-7.684 2.693l.5 3.752c1.723-.5 3.851-1.207 6.385-2.119a49.629 49.629 0 0 0 7.56-3.488l4.25 5.254 3.182-2.693-3.868-4.856c1.297-1 2.297-1.884 3-2.649 1.66 2.678 4.315 4.908 7.964 6.688 3.648 1.78 6.782 3.068 9.4 3.863l1.618-3.752zM464.07 72l3.93-1.234L466.841 64 463 65.234 464.07 72zM482 76.65A164.178 164.178 0 0 0 478.931 65L475 66.62A118.098 118.098 0 0 1 478.019 78L482 76.65zM466.468 80a7.44 7.44 0 0 0 4.31-1.337c1.296-.891 2.37-1.76 3.222-2.606l-2.664-2.492a16.802 16.802 0 0 1-2.052 1.631c-.794.544-1.541.816-2.242.816h-9.812c-1.022 0-1.476-.498-1.362-1.495l1.37-9.517h-3.81l-1.37 9.517a5.893 5.893 0 0 0 .188 2.492c.243.846.732 1.556 1.467 2.13.735.574 1.716.861 2.943.861h9.812zm-21.137-2c1.726-3.367 3.282-7.54 4.669-12.517L446.282 65a82.367 82.367 0 0 1-1.937 6.193A48.572 48.572 0 0 1 442 76.639L445.331 78zM9.88 129.19c1.115 0 2.28-.222 3.496-.665a14.207 14.207 0 0 0 3.496-1.881l.152-.684-.266-.076a12.505 12.505 0 0 1-3.344 1.881c-1.19.443-2.356.665-3.496.665-2.305 0-4.06-.779-5.263-2.337-1.203-1.558-1.805-3.794-1.805-6.707 0-2.888.405-5.377 1.216-7.467.81-2.09 1.995-3.699 3.553-4.826 1.558-1.127 3.426-1.691 5.605-1.691 2.204 0 4.053.71 5.548 2.128h.266l.342-.646a8.457 8.457 0 0 0-2.774-1.653 9.474 9.474 0 0 0-3.306-.589c-2.356 0-4.37.595-6.042 1.786-1.672 1.19-2.951 2.894-3.838 5.111-.887 2.217-1.33 4.858-1.33 7.923 0 3.116.665 5.516 1.995 7.201 1.33 1.685 3.262 2.527 5.795 2.527zm22.23.038l.57-.266v-.152a70.981 70.981 0 0 1-4.37-7.6c1.621-.481 2.875-1.286 3.762-2.413.887-1.127 1.33-2.489 1.33-4.085 0-1.393-.437-2.476-1.311-3.249-.874-.773-2.096-1.159-3.667-1.159l-4.18.038L22.61 123.3l-.722 5.7h.76l.722-5.738.228-1.9h3.914c1.216 2.457 2.673 5.041 4.37 7.752l.228.114zm-4.294-8.626l-4.104-.038 1.216-9.538 3.648-.038c1.317.076 2.318.443 3.002 1.102.684.659 1.026 1.57 1.026 2.736 0 1.47-.418 2.704-1.254 3.705-.836 1-2.014 1.691-3.534 2.071zM48.298 129l.228-.608-.114-.114h-8.626l.646-5.016.456-3.534h6.992l.19-.608-.076-.152h-7.03l1.026-7.904 8.474.038.228-.608-.114-.152h-9.272L39.672 123.3l-.722 5.7h9.348zm3.876 0l.608-1.33 2.508-4.788h8.892l1.14 4.788.228 1.33h.874l-4.522-18.658h-.836L51.3 129h.874zm11.818-6.84H55.67l5.624-10.678h.114l2.584 10.678zM74.024 129l.722-5.738 1.558-12.198h2.66l3.04.038.19-.608-.038-.152H69.844l-.19.608.076.152 3.078-.038h2.736L73.986 123.3l-.722 5.7h.76zm12.198 0l.76-5.738 1.596-12.92h-.76L86.222 123.3l-.76 5.7h.76zm8.854 0l.722-5.852 1.482-11.286h.076L106.932 129h.76l.722-5.206 1.71-13.49-.76.076-2.166 17.1h-.152l-9.576-17.138h-.76l-1.672 13.11-.722 5.548h.76zm25.802.114c1.039 0 1.989-.07 2.85-.209.861-.14 2.001-.399 3.42-.779l.456-3.8.342-2.356-.76.076-.342 2.318-.38 3.192c-1.241.33-2.255.557-3.04.684-.785.127-1.634.19-2.546.19-1.925 0-3.407-.602-4.446-1.805-1.039-1.203-1.558-2.92-1.558-5.149 0-3.344.81-5.934 2.432-7.771 1.621-1.837 3.901-2.755 6.84-2.755 1.495 0 3.078.507 4.75 1.52h.19l.304-.684c-1.723-1.039-3.47-1.558-5.244-1.558-3.217 0-5.7.988-7.448 2.964-1.748 1.976-2.622 4.775-2.622 8.398 0 2.407.589 4.262 1.767 5.567 1.178 1.305 2.856 1.957 5.035 1.957zm25.612.038c2.939 0 5.231-1.013 6.878-3.04 1.647-2.027 2.47-4.826 2.47-8.398 0-2.381-.589-4.23-1.767-5.548-1.178-1.317-2.856-1.976-5.035-1.976-2.964 0-5.263.994-6.897 2.983-1.634 1.989-2.451 4.756-2.451 8.303 0 2.432.589 4.32 1.767 5.662 1.178 1.343 2.856 2.014 5.035 2.014zm-.038-.76c-1.925 0-3.395-.602-4.408-1.805-1.013-1.203-1.52-2.932-1.52-5.187 0-3.319.735-5.89 2.204-7.714 1.47-1.824 3.547-2.736 6.232-2.736 1.976 0 3.483.589 4.522 1.767 1.039 1.178 1.558 2.882 1.558 5.111 0 3.319-.76 5.909-2.28 7.771-1.52 1.862-3.623 2.793-6.308 2.793zm15.086.608l.722-5.738.19-1.482h2.622c2.23 0 3.99-.64 5.282-1.919 1.292-1.28 1.938-2.958 1.938-5.035 0-1.419-.43-2.527-1.292-3.325-.861-.798-2.065-1.197-3.61-1.197l-4.256.038L161.5 123.3l-.722 5.7h.76zm4.484-7.942h-3.496l1.292-10.032 3.686-.038c1.292.076 2.274.443 2.945 1.102.671.659 1.007 1.596 1.007 2.812 0 1.748-.481 3.167-1.444 4.256-.963 1.09-2.293 1.723-3.99 1.9zM186.2 129l.228-.608-.114-.114h-8.626l.646-5.016.456-3.534h6.992l.19-.608-.076-.152h-7.03l1.026-7.904 8.474.038.228-.608-.114-.152h-9.272l-1.634 12.958-.722 5.7h9.348zm15.998.228l.57-.266v-.152a70.981 70.981 0 0 1-4.37-7.6c1.621-.481 2.875-1.286 3.762-2.413.887-1.127 1.33-2.489 1.33-4.085 0-1.393-.437-2.476-1.311-3.249-.874-.773-2.096-1.159-3.667-1.159l-4.18.038-1.634 12.958-.722 5.7h.76l.722-5.738.228-1.9h3.914c1.216 2.457 2.673 5.041 4.37 7.752l.228.114zm-4.294-8.626l-4.104-.038 1.216-9.538 3.648-.038c1.317.076 2.318.443 3.002 1.102.684.659 1.026 1.57 1.026 2.736 0 1.47-.418 2.704-1.254 3.705-.836 1-2.014 1.691-3.534 2.071zm9.272 8.398l.608-1.33 2.508-4.788h8.892l1.14 4.788.228 1.33h.874l-4.522-18.658h-.836L206.302 129h.874zm11.818-6.84h-8.322l5.624-10.678h.114l2.584 10.678zm10.032 6.84l.722-5.738 1.558-12.198h2.66l3.04.038.19-.608-.038-.152h-12.312l-.19.608.076.152 3.078-.038h2.736l-1.558 12.236-.722 5.7h.76zm12.198 0l.76-5.738 1.596-12.92h-.76l-1.596 12.958-.76 5.7h.76zm8.854 0l.722-5.852 1.482-11.286h.076L261.934 129h.76l.722-5.206 1.71-13.49-.76.076-2.166 17.1h-.152l-9.576-17.138h-.76l-1.672 13.11-.722 5.548h.76zm25.802.114c1.039 0 1.989-.07 2.85-.209.861-.14 2.001-.399 3.42-.779l.456-3.8.342-2.356-.76.076-.342 2.318-.38 3.192c-1.241.33-2.255.557-3.04.684-.785.127-1.634.19-2.546.19-1.925 0-3.407-.602-4.446-1.805-1.039-1.203-1.558-2.92-1.558-5.149 0-3.344.81-5.934 2.432-7.771 1.621-1.837 3.901-2.755 6.84-2.755 1.495 0 3.078.507 4.75 1.52h.19l.304-.684c-1.723-1.039-3.47-1.558-5.244-1.558-3.217 0-5.7.988-7.448 2.964-1.748 1.976-2.622 4.775-2.622 8.398 0 2.407.589 4.262 1.767 5.567 1.178 1.305 2.856 1.957 5.035 1.957zm22.61 0c1.14 0 2.172-.24 3.097-.722.925-.481 1.647-1.121 2.166-1.919.52-.798.779-1.653.779-2.565 0-.836-.196-1.545-.589-2.128a5.088 5.088 0 0 0-1.425-1.425c-.557-.367-1.292-.779-2.204-1.235-1.241-.608-2.166-1.184-2.774-1.729-.608-.545-.912-1.26-.912-2.147 0-.71.203-1.387.608-2.033.405-.646.988-1.172 1.748-1.577s1.634-.608 2.622-.608c1.216 0 2.305.266 3.268.798l.228-.038.266-.684a8.685 8.685 0 0 0-3.724-.836c-1.115 0-2.109.228-2.983.684-.874.456-1.558 1.058-2.052 1.805a4.355 4.355 0 0 0-.741 2.451c0 .81.19 1.501.57 2.071.38.57.842 1.039 1.387 1.406s1.286.792 2.223 1.273c1.241.633 2.172 1.216 2.793 1.748.62.532.931 1.254.931 2.166 0 .735-.222 1.45-.665 2.147-.443.697-1.07 1.26-1.881 1.691-.81.43-1.71.646-2.698.646a7.4 7.4 0 0 1-2.242-.361 5.891 5.891 0 0 1-1.976-1.045l-.19.038-.076.76c.557.43 1.241.766 2.052 1.007.81.24 1.609.361 2.394.361zm15.884-.114l.76-5.662.152-1.368 7.942-11.628h-.95l-.456.798-6.688 9.614h-.152l-3.8-9.614-.228-.798h-.95l4.56 11.476-.19 1.52-.76 5.662h.76zm15.466.114c1.14 0 2.172-.24 3.097-.722.925-.481 1.647-1.121 2.166-1.919.52-.798.779-1.653.779-2.565 0-.836-.196-1.545-.589-2.128a5.088 5.088 0 0 0-1.425-1.425c-.557-.367-1.292-.779-2.204-1.235-1.241-.608-2.166-1.184-2.774-1.729-.608-.545-.912-1.26-.912-2.147 0-.71.203-1.387.608-2.033.405-.646.988-1.172 1.748-1.577s1.634-.608 2.622-.608c1.216 0 2.305.266 3.268.798l.228-.038.266-.684a8.685 8.685 0 0 0-3.724-.836c-1.115 0-2.109.228-2.983.684-.874.456-1.558 1.058-2.052 1.805a4.355 4.355 0 0 0-.741 2.451c0 .81.19 1.501.57 2.071.38.57.842 1.039 1.387 1.406s1.286.792 2.223 1.273c1.241.633 2.172 1.216 2.793 1.748.62.532.931 1.254.931 2.166 0 .735-.222 1.45-.665 2.147-.443.697-1.07 1.26-1.881 1.691-.81.43-1.71.646-2.698.646a7.4 7.4 0 0 1-2.242-.361 5.891 5.891 0 0 1-1.976-1.045l-.19.038-.076.76c.557.43 1.241.766 2.052 1.007.81.24 1.609.361 2.394.361zm15.162-.114l.722-5.738 1.558-12.198h2.66l3.04.038.19-.608-.038-.152h-12.312l-.19.608.076.152 3.078-.038h2.736l-1.558 12.236-.722 5.7h.76zm20.786 0l.228-.608-.114-.114h-8.626l.646-5.016.456-3.534h6.992l.19-.608-.076-.152h-7.03l1.026-7.904 8.474.038.228-.608-.114-.152h-9.272l-1.634 12.958-.722 5.7h9.348zm5.51 0l1.33-5.738 2.698-11.248h.152l4.218 14.63h.874l8.018-14.63h.152l-.076 11.286-.19 5.7h.76l.342-18.658h-.874l-1.406 2.584-6.992 12.616h-.114l-3.572-12.312-.798-2.888h-.912L370.5 129h.798zM3.724 174l.76-5.738 1.596-12.92h-.76L3.724 168.3l-.76 5.7h.76zm8.854 0l.722-5.852 1.482-11.286h.076L24.434 174h.76l.722-5.206 1.71-13.49-.76.076-2.166 17.1h-.152l-9.576-17.138h-.76l-1.672 13.11-.722 5.548h.76zm21.508 0l.722-5.852 1.482-11.286h.076L45.942 174h.76l.722-5.206 1.71-13.49-.76.076-2.166 17.1h-.152l-9.576-17.138h-.76l-1.672 13.11-.722 5.548h.76zm25.802.152c2.939 0 5.231-1.013 6.878-3.04 1.647-2.027 2.47-4.826 2.47-8.398 0-2.381-.589-4.23-1.767-5.548-1.178-1.317-2.856-1.976-5.035-1.976-2.964 0-5.263.994-6.897 2.983-1.634 1.989-2.451 4.756-2.451 8.303 0 2.432.589 4.32 1.767 5.662 1.178 1.343 2.856 2.014 5.035 2.014zm-.038-.76c-1.925 0-3.395-.602-4.408-1.805-1.013-1.203-1.52-2.932-1.52-5.187 0-3.319.735-5.89 2.204-7.714 1.47-1.824 3.547-2.736 6.232-2.736 1.976 0 3.483.589 4.522 1.767 1.039 1.178 1.558 2.882 1.558 5.111 0 3.319-.76 5.909-2.28 7.771-1.52 1.862-3.623 2.793-6.308 2.793zm18.81.608l9.842-18.658h-.874l-.646 1.33-8.55 16.188h-.076l-3.914-16.188-.19-1.33h-.874L77.862 174h.798zm10.336 0l.608-1.33 2.508-4.788h8.892l1.14 4.788.228 1.33h.874l-4.522-18.658h-.836L88.122 174h.874zm11.818-6.84h-8.322l5.624-10.678h.114l2.584 10.678zm10.032 6.84l.722-5.738 1.558-12.198h2.66l3.04.038.19-.608-.038-.152h-12.312l-.19.608.076.152 3.078-.038h2.736l-1.558 12.236-.722 5.7h.76zm12.198 0l.76-5.738 1.596-12.92h-.76l-1.596 12.958-.76 5.7h.76zm13.148.152c2.939 0 5.231-1.013 6.878-3.04 1.647-2.027 2.47-4.826 2.47-8.398 0-2.381-.589-4.23-1.767-5.548-1.178-1.317-2.856-1.976-5.035-1.976-2.964 0-5.263.994-6.897 2.983-1.634 1.989-2.451 4.756-2.451 8.303 0 2.432.589 4.32 1.767 5.662 1.178 1.343 2.856 2.014 5.035 2.014zm-.038-.76c-1.925 0-3.395-.602-4.408-1.805-1.013-1.203-1.52-2.932-1.52-5.187 0-3.319.735-5.89 2.204-7.714 1.47-1.824 3.547-2.736 6.232-2.736 1.976 0 3.483.589 4.522 1.767 1.039 1.178 1.558 2.882 1.558 5.111 0 3.319-.76 5.909-2.28 7.771-1.52 1.862-3.623 2.793-6.308 2.793zm15.048.608l.722-5.852 1.482-11.286h.076L163.058 174h.76l.722-5.206 1.71-13.49-.76.076-2.166 17.1h-.152l-9.576-17.138h-.76l-1.672 13.11-.722 5.548h.76zm36.214 0l.228-.608-.114-.114h-8.626l.646-5.016.456-3.534h6.992l.19-.608-.076-.152h-7.03l1.026-7.904 8.474.038.228-.608-.114-.152h-9.272L178.79 168.3l-.722 5.7h9.348zm10.83.152c.912 0 1.856-.165 2.831-.494a12.04 12.04 0 0 0 2.831-1.406l.152-.684-.19-.076a11.064 11.064 0 0 1-2.774 1.425c-.988.342-1.95.513-2.888.513-1.875 0-3.306-.602-4.294-1.805-.988-1.203-1.482-2.92-1.482-5.149 0-3.319.728-5.903 2.185-7.752 1.457-1.85 3.515-2.774 6.175-2.774.861 0 1.691.146 2.489.437.798.291 1.488.69 2.071 1.197h.228l.304-.684c-.659-.532-1.438-.944-2.337-1.235a8.769 8.769 0 0 0-2.717-.437c-2.939 0-5.206 1-6.802 3.002-1.596 2.001-2.394 4.775-2.394 8.322 0 2.432.57 4.307 1.71 5.624 1.14 1.317 2.774 1.976 4.902 1.976zm16.796 0c2.939 0 5.231-1.013 6.878-3.04 1.647-2.027 2.47-4.826 2.47-8.398 0-2.381-.589-4.23-1.767-5.548-1.178-1.317-2.856-1.976-5.035-1.976-2.964 0-5.263.994-6.897 2.983-1.634 1.989-2.451 4.756-2.451 8.303 0 2.432.589 4.32 1.767 5.662 1.178 1.343 2.856 2.014 5.035 2.014zm-.038-.76c-1.925 0-3.395-.602-4.408-1.805-1.013-1.203-1.52-2.932-1.52-5.187 0-3.319.735-5.89 2.204-7.714 1.47-1.824 3.547-2.736 6.232-2.736 1.976 0 3.483.589 4.522 1.767 1.039 1.178 1.558 2.882 1.558 5.111 0 3.319-.76 5.909-2.28 7.771-1.52 1.862-3.623 2.793-6.308 2.793zm22.724.608l.19-.608-.038-.114h-7.676l.646-5.016 1.634-12.92h-.76L230.09 168.3l-.76 5.7h8.398zm9.576.152c2.939 0 5.231-1.013 6.878-3.04 1.647-2.027 2.47-4.826 2.47-8.398 0-2.381-.589-4.23-1.767-5.548-1.178-1.317-2.856-1.976-5.035-1.976-2.964 0-5.263.994-6.897 2.983-1.634 1.989-2.451 4.756-2.451 8.303 0 2.432.589 4.32 1.767 5.662 1.178 1.343 2.856 2.014 5.035 2.014zm-.038-.76c-1.925 0-3.395-.602-4.408-1.805-1.013-1.203-1.52-2.932-1.52-5.187 0-3.319.735-5.89 2.204-7.714 1.47-1.824 3.547-2.736 6.232-2.736 1.976 0 3.483.589 4.522 1.767 1.039 1.178 1.558 2.882 1.558 5.111 0 3.319-.76 5.909-2.28 7.771-1.52 1.862-3.623 2.793-6.308 2.793zm20.292.722c1.039 0 1.989-.07 2.85-.209.861-.14 2.001-.399 3.42-.779l.456-3.8.342-2.356-.76.076-.342 2.318-.38 3.192c-1.241.33-2.255.557-3.04.684-.785.127-1.634.19-2.546.19-1.925 0-3.407-.602-4.446-1.805-1.039-1.203-1.558-2.92-1.558-5.149 0-3.344.81-5.934 2.432-7.771 1.621-1.837 3.901-2.755 6.84-2.755 1.495 0 3.078.507 4.75 1.52h.19l.304-.684c-1.723-1.039-3.47-1.558-5.244-1.558-3.217 0-5.7.988-7.448 2.964-1.748 1.976-2.622 4.775-2.622 8.398 0 2.407.589 4.262 1.767 5.567 1.178 1.305 2.856 1.957 5.035 1.957zm17.67-.114l.76-5.662.152-1.368 7.942-11.628h-.95l-.456.798-6.688 9.614h-.152l-3.8-9.614-.228-.798h-.95l4.56 11.476-.19 1.52-.76 5.662h.76z"/></g><path fill="#F49700" d="M0 0h60v6H0z"/></g></svg>