<?xml version="1.0" encoding="UTF-8"?>
<svg width="32px" height="32px" viewBox="0 0 32 32" version="1.1" xmlns="http://www.w3.org/2000/svg" xmlns:xlink="http://www.w3.org/1999/xlink">
    <title>微博</title>
    <g id="页面-1" stroke="none" stroke-width="1" fill="none" fill-rule="evenodd">
        <g id="1440-登录-交互提示" transform="translate(-1031.000000, -526.000000)" fill-rule="nonzero">
            <g id="编组" transform="translate(190.000000, 112.000000)">
                <g id="内容" transform="translate(606.000000, 0.000000)">
                    <g id="编组-4" transform="translate(40.000000, 376.000000)">
                        <g id="微博" transform="translate(195.000000, 38.000000)">
                            <path d="M16,32 C7.1631875,32 0,24.8368125 0,16 C0,7.1631875 7.1631875,0 16,0 C24.8368125,0 32,7.1631875 32,16 C32,24.8368125 24.8368125,32 16,32 Z" id="路径" fill="#E71F19"></path>
                            <path d="M22.364,17.4664063 C21.948,16.2240063 20.6688,15.7704063 20.3776,15.7440063 C20.0872,15.7168063 19.8232,15.5576063 20.016,15.2280063 C20.2096,14.8984063 20.5656,13.9400063 19.88,13.2656063 C19.1944,12.5872063 17.696,12.8440063 16.6344063,13.2816063 C15.5768063,13.7192063 15.6344063,13.4136063 15.6664063,13.1136063 C15.7016063,12.7984063 16.2728063,11.0328063 14.5264063,10.8192063 C12.2384063,10.5408063 9.30321875,13.3520063 8.26721875,14.9712063 C6.70001875,17.4176063 6.94721875,19.0728 6.94721875,19.0728 L6.95841875,19.0728 C7.14641875,21.3568 10.5360125,23.1768 14.6896063,23.1768 C18.2616062,23.1768 21.2704188,21.8288 22.1600125,19.9983938 C22.1600125,19.9983938 22.1624125,19.9903938 22.1704125,19.9767938 C22.2632125,19.7799938 22.3336125,19.5799938 22.3776125,19.3719938 C22.5024125,18.8807938 22.5976125,18.1679938 22.3640125,17.4663938 L22.364,17.4664063 Z M14.176,22.1775937 C11.2184,22.1775937 8.8191875,20.6007938 8.8191875,18.6567813 C8.8191875,16.7127813 11.2159875,15.1367813 14.176,15.1367813 C17.1328,15.1367813 19.532,16.7127813 19.532,18.6567813 C19.532,20.6031813 17.132,22.1767813 14.176,22.1767813 L14.176,22.1775937 Z M21.4584062,14.3751875 L21.4584063,14.3751875 C21.6786594,14.4684006 21.9327969,14.3656722 22.0264063,14.1455875 C22.1384063,13.8831875 22.1944063,13.6055875 22.1944063,13.3167875 C22.1944063,12.1447875 21.2344063,11.1919875 20.0544063,11.1919875 C19.7664063,11.1919875 19.4864063,11.2479875 19.2224063,11.3591875 L19.2224063,11.3591875 C19.0025969,11.452855 18.9003375,11.7069781 18.9940063,11.9267875 C19.0876738,12.1465969 19.3417969,12.2488563 19.5616063,12.1551875 L19.5616063,12.1551875 C19.7188195,12.0898641 19.8873626,12.0561556 20.0576063,12.0559875 C20.7584063,12.0559875 21.3272063,12.6223875 21.3272063,13.3167875 C21.3272063,13.4863875 21.2952063,13.6511875 21.2264063,13.8079875 L21.2264063,13.8079875 C21.1326351,14.02497 21.2325175,14.2768844 21.4495001,14.3706563 C21.4524547,14.3719331 21.4554237,14.3731767 21.4584064,14.3743865 L21.4584062,14.3751875 Z" id="形状" fill="#FFFFFF"></path>
                            <path d="M20.0295937,8.5408125 C19.5431937,8.5408125 19.0615937,8.6104125 18.5991937,8.7456125 L18.5991938,8.7456125 C18.25555,8.84554687 18.0579844,9.2051375 18.1579188,9.54878437 C18.1580767,9.54932763 18.1582354,9.54987068 18.1583948,9.55041352 L18.1583948,9.55041345 C18.2634933,9.89323845 18.6246479,10.0878978 18.9687948,9.98721345 C19.3135948,9.88721345 19.6703948,9.83601345 20.0295948,9.83601345 C22.0775948,9.83601345 23.7455948,11.4920134 23.7455948,13.5240134 C23.7455948,13.8888134 23.6911948,14.2504134 23.5879948,14.5960134 L23.5879948,14.5960134 C23.4841433,14.9375696 23.6768423,15.2986478 24.0184011,15.4024978 C24.0816555,15.4217304 24.1474861,15.4311451 24.2135958,15.4304529 L24.2135958,15.4304529 C24.5000145,15.4303329 24.7532708,15.2444395 24.8391958,14.9712133 L24.839196,14.9712126 C24.9816763,14.5022876 25.0541904,14.0149064 25.0543957,13.5248126 C25.0519957,10.7760126 22.7983957,8.5408125 20.0303957,8.5408125 L20.0295937,8.5408125 Z M13.68,16.421625 C12.1024,16.421625 10.824,17.531225 10.824,18.902425 C10.824,20.273625 12.1024,21.384025 13.68,21.384025 C15.2584,21.384025 16.5368,20.274425 16.5368,18.902425 C16.5368,17.531225 15.2584,16.421625 13.6808,16.421625 L13.68,16.421625 Z M12.7472,20.5144375 C12.1952,20.5144375 11.7464,20.0688375 11.7464,19.5208375 C11.7464,18.9728375 12.1952,18.5272375 12.7472,18.5272375 C13.2992,18.5272375 13.7488,18.9728375 13.7488,19.5208375 C13.7488,20.0688375 13.3,20.5144375 12.7472,20.5144375 Z M14.6192,18.7240375 C14.4992,18.9320375 14.2576,19.0184375 14.0808,18.9160375 C13.904,18.8160375 13.86,18.5648375 13.98,18.3568375 C14.1,18.1488375 14.3416,18.0624375 14.5184,18.1648375 C14.6952,18.2680375 14.7384,18.5192375 14.6192,18.7248375 L14.6192,18.7240375 Z" id="形状" fill="#FFFFFF"></path>
                        </g>
                    </g>
                </g>
            </g>
        </g>
    </g>
</svg>