<?xml version="1.0" encoding="UTF-8"?>
<svg width="80px" height="80px" viewBox="0 0 80 80" version="1.1" xmlns="http://www.w3.org/2000/svg" xmlns:xlink="http://www.w3.org/1999/xlink">
    <title>icon/同理心</title>
    <defs>
        <linearGradient x1="50%" y1="0%" x2="50%" y2="100%" id="linearGradient-1">
            <stop stop-color="#ECECFF" offset="0%"></stop>
            <stop stop-color="#FFFFFF" offset="100%"></stop>
        </linearGradient>
    </defs>
    <g id="icon/同理心" stroke="none" stroke-width="1" fill="none" fill-rule="evenodd">
        <g id="一站式体验" transform="translate(16.000000, 10.000000)">
            <g id="技术支持">
                <path d="M48,0 L48,38 L44,38 L44,4 L4,4 L4,56 L24,56 L24,60 L0,60 L0,0 L48,0 Z" id="矩形-2" fill="#1A243C"></path>
                <rect id="矩形" fill="url(#linearGradient-1)" x="8" y="8" width="32" height="44"></rect>
            </g>
            <path d="M34.7279221,38.7279221 C38.0416306,38.7279221 40.7279221,41.4142136 40.7279221,44.7279221 C44.0416306,44.7279221 46.7279221,47.4142136 46.7279221,50.7279221 C46.7279221,53.966319 44.1623472,56.6054938 40.9528603,56.7237836 L40.7279221,56.7279221 L28.7279221,56.7279221 L28.7279221,44.7279221 L28.7320605,44.5029838 C28.8503503,41.293497 31.4895251,38.7279221 34.7279221,38.7279221 Z M34.7279221,42.7279221 C33.7029699,42.7279221 32.8532949,43.5014854 32.7424057,44.4353578 L32.7313837,44.5765644 L32.7279221,44.7279221 L32.727,52.727 L40.6543415,52.7285989 L40.8055352,52.7264976 C41.8750685,52.6870786 42.7279221,51.8041218 42.7279221,50.7279221 C42.7279221,49.6735603 41.9120443,48.8097569 40.8771844,48.7334078 L40.7279221,48.7279221 L36.7279221,48.7279221 L36.7279221,44.7279221 C36.7279221,43.6233526 35.8324916,42.7279221 34.7279221,42.7279221 Z" id="矩形-3" fill="#003296" transform="translate(37.727922, 47.727922) rotate(-45.000000) translate(-37.727922, -47.727922) "></path>
        </g>
    </g>
</svg>