<?xml version="1.0" encoding="UTF-8"?>
<svg width="80px" height="80px" viewBox="0 0 80 80" version="1.1" xmlns="http://www.w3.org/2000/svg" xmlns:xlink="http://www.w3.org/1999/xlink">
    <title>icon/开放共享</title>
    <defs>
        <linearGradient x1="50%" y1="0%" x2="50%" y2="100%" id="linearGradient-1">
            <stop stop-color="#ECECFF" offset="0%"></stop>
            <stop stop-color="#FFFFFF" offset="100%"></stop>
        </linearGradient>
        <path d="M28,0 C43.463973,0 56,12.536027 56,28 C56,43.463973 43.463973,56 28,56 C12.536027,56 0,43.463973 0,28 C0,12.536027 12.536027,0 28,0 Z" id="path-2"></path>
    </defs>
    <g id="icon/开放共享" stroke="none" stroke-width="1" fill="none" fill-rule="evenodd">
        <g id="01_通用组件/00_icon图标/02_项目图标/03-一级图标/03_UOS图标/01_黑边/生态适配">
            <g id="编组" transform="translate(12.000000, 10.000000)">
                <circle id="椭圆形" fill="url(#linearGradient-1)" cx="28" cy="28" r="20"></circle>
                <path d="M28,0 C43.463973,0 56,12.536027 56,28 C56,30.5358018 55.662908,32.9928717 55.0310903,35.3288432 C53.8930582,34.6060795 52.6516682,34.0326317 51.3338315,33.6355774 C51.7694821,31.8290043 52,29.9414223 52,28 C52,14.745166 41.254834,4 28,4 C14.745166,4 4,14.745166 4,28 C4,41.254834 14.745166,52 28,52 C29.5142857,52 30.9958159,51.8597573 32.432311,51.5915518 C32.761521,52.9300865 33.2704649,54.1988018 33.9322349,55.3697139 C32.0203805,55.7827879 30.0355565,56 28,56 C12.536027,56 0,43.463973 0,28 C0,12.536027 12.536027,0 28,0 Z" id="椭圆形" fill="#1A243C"></path>
                <g id="路径-2">
                    <mask id="mask-3" fill="white">
                        <use xlink:href="#path-2"></use>
                    </mask>
                    <g id="蒙版" fill-rule="nonzero"></g>
                    <path d="M-19.7309139,-12.1481655 C-19.7560331,-11.9661036 -19.7789666,-11.7804417 -19.799715,-11.5911761 L-19.8554055,-11.0125649 C-19.8635949,-10.9143267 -19.8712382,-10.8151867 -19.8783354,-10.7151444 L-19.9143669,-10.1040599 C-19.9585872,-9.17118151 -19.9585907,-8.1651467 -19.9144348,-7.08562619 L-19.8784559,-6.35505546 L-19.8293966,-5.6026895 L-19.7672604,-4.82850664 C-19.7558149,-4.69765689 -19.7438246,-4.56589719 -19.7312898,-4.4332271 L-19.6495456,-3.62627824 L-19.5547341,-2.79745827 C-19.5378434,-2.65749781 -19.5204085,-2.51662516 -19.5024293,-2.37483985 L-19.3880239,-1.51317258 L-19.2605606,-0.629580011 L-19.1200432,0.27595954 L-18.9664754,1.20346775 L-18.7998611,2.15296631 C-18.771005,2.3130498 -18.7416055,2.47405046 -18.7116626,2.63596873 L-18.5254855,3.61849345 L-18.3262712,4.6230627 L-18.1140236,5.64969817 L-17.8887463,6.69842153 L-17.6504433,7.76925448 L-17.2685735,9.41700678 L-16.9977224,10.5432085 L-16.7138587,11.6915957 L-16.4169861,12.86219 L-15.9472939,14.6597673 L-15.448353,16.5074326 L-15.0994827,17.7670723 L-14.7376225,19.0490275 L-14.1704841,21.0138493 L-13.5741396,23.0290031 L-13.1603571,24.4004372 L-12.5153637,26.4996401 L-11.8411981,28.6493699 L-11.1284611,30.8812908 L-10.4149601,31.2632457 C-10.0596416,31.4534565 -9.70703276,31.6400494 -9.35713066,31.8230159 L-8.31554142,32.3610277 C-8.14329554,32.4488803 -7.97172557,32.5358242 -7.80083113,32.6218584 L-6.7835677,33.1271378 L-5.78249844,33.6105325 C-5.45150566,33.7680109 -5.12320885,33.9218336 -4.79760492,34.0719919 L-3.82886872,34.5114656 C-3.5086475,34.6542869 -3.19111609,34.7934355 -2.87627142,34.928903 L-1.93979459,35.3242537 C7.34443281,39.1671582 14.2133538,39.689471 18.7498847,36.6638934 C22.3213177,34.2819747 23.362299,31.9704793 23.3020167,27.8906668 L23.2854993,27.2807843 L23.2542543,26.6443746 L23.2092771,25.9801571 L23.11167,24.7307038 L23.078986,24.2122759 L23.0579758,23.7507025 L23.0489295,23.3358021 C23.0474457,23.1383232 23.0505572,22.9545286 23.0584272,22.7786911 L23.0805601,22.4359286 C23.0900848,22.3240797 23.1017728,22.2140703 23.1156724,22.1042036 L23.1640543,21.7733343 C23.3466611,20.6672391 23.769062,19.7090928 24.5417635,18.7739566 C25.9764737,17.0376464 27.821966,16.5970228 30.9860285,16.9687836 L31.5260581,17.0373826 L31.9954719,17.1047974 L33.8676743,17.4011901 L34.5612994,17.5051598 L35.2117461,17.5947507 C35.421667,17.6221357 35.6248441,17.6470012 35.8217299,17.6692238 L36.393966,17.7278398 C39.0729256,17.9716391 40.5242979,17.6338832 42.1277771,16.3390205 C47.3367316,12.1326168 49.0805046,-3.02895155 44.542923,-8.53060453 C44.0971748,-9.07105815 43.2484673,-9.64085303 42.0679668,-10.2235643 L41.6098653,-10.4426545 C41.5309693,-10.4792597 41.4508119,-10.5159074 41.3694106,-10.5525935 L40.8662144,-10.7731391 L40.3339976,-10.9944144 L39.7735941,-11.2162269 L39.1858379,-11.4383843 L38.571563,-11.6606939 L37.9316033,-11.8829633 L37.2667929,-12.105 L36.5779657,-12.3266116 L35.8659558,-12.5476056 L35.1315969,-12.7677894 L34.3757233,-12.9869707 L33.5991687,-13.2049569 L32.8027673,-13.4215556 L31.5727766,-13.7434309 L30.7304066,-13.9557186 L29.4353723,-14.2702253 L28.1050647,-14.5794445 L27.1999868,-14.7823325 L25.8171453,-15.081296 L24.4065364,-15.3732398 L22.9709747,-15.6575143 L21.5132749,-15.93347 L20.0362518,-16.2004571 L18.5427199,-16.4578261 C18.375959,-16.4858643 18.2089445,-16.5137123 18.0416938,-16.5413662 L16.5305286,-16.7849005 L15.0094222,-17.017301 L13.4811894,-17.237918 L12.4597984,-17.3781288 L11.3930478,-17.5183981 L10.2935199,-17.6567056 L9.20973954,-17.7865435 L7.61410209,-17.9651836 L6.57070343,-18.0733753 L5.54386257,-18.1727199 L4.53381099,-18.2631095 L3.54078017,-18.3444362 L2.56500161,-18.4165922 L1.6067068,-18.4794697 L0.666127232,-18.5329608 L-0.256505614,-18.5769577 C-0.561033054,-18.590029 -0.862530791,-18.6015 -1.16096024,-18.6113526 L-2.04700517,-18.6360376 C-2.19313232,-18.6393366 -2.33848276,-18.6422266 -2.48305165,-18.6447052 L-3.34104798,-18.6546231 L-4.18005587,-18.6546231 L-4.99984385,-18.6444127 C-5.13486066,-18.6418746 -5.26906699,-18.6389117 -5.40245803,-18.6355218 L-6.19298208,-18.6100397 C-6.58331374,-18.5947184 -6.96622091,-18.5755133 -7.34157337,-18.5523636 L-8.08216678,-18.500787 L-8.80238283,-18.4385839 C-9.03903289,-18.4160664 -9.27224815,-18.3917599 -9.50199002,-18.3656463 L-10.1807569,-18.2818666 C-15.7496694,-17.5382265 -19.1235993,-15.6539553 -19.6997095,-12.3482178 L-19.7309139,-12.1481655 Z M13.2805603,-13.2253316 L14.6668122,-13.0206133 L16.0400859,-12.8064133 L17.408319,-12.5820245 L18.3162034,-12.4271957 L19.6694176,-12.1877344 L21.0096498,-11.9403749 L22.7712844,-11.5997605 L24.0696438,-11.3373119 L25.3450944,-11.0698281 L27.0049121,-10.7068351 L27.815357,-10.5231906 L29.0042129,-10.2457547 L30.1582478,-9.96671938 L30.9067888,-9.78023135 L31.9961709,-9.50043885 L33.0427905,-9.22133731 L34.0436698,-8.94378563 L34.9958306,-8.66864275 L35.8962948,-8.39676758 L36.4664134,-8.21775703 L37.274099,-7.95323677 L38.0221466,-7.69427468 L38.7075783,-7.44172969 L39.1282755,-7.27735557 L39.5189373,-7.11646974 L39.8786816,-6.95932668 L40.2066258,-6.8061809 L40.5018876,-6.65728688 C40.5483253,-6.63283966 40.5933645,-6.6085802 40.6369868,-6.58451381 L40.8815705,-6.44247462 C41.1467382,-6.27956408 41.3406754,-6.12663322 41.457077,-5.98550063 C44.5629582,-2.21973232 43.111119,10.4035623 39.6147283,13.2270138 C39.138429,13.6116413 38.5469252,13.7885412 37.5054223,13.7719299 L37.1411288,13.7592452 L36.7407465,13.7323434 L36.3015198,13.6913414 L35.8206934,13.6363563 L35.2955117,13.5675051 L34.7232191,13.4849047 L32.564919,13.145413 L31.8131227,13.0404006 L31.4527968,12.9961111 C27.0785825,12.4821637 23.9307878,13.2337207 21.4582365,16.2260434 C20.2245022,17.7191293 19.5126478,19.3338527 19.2174751,21.121788 C19.0728951,21.9975453 19.0250056,22.7501417 19.0535679,23.7305195 L19.0766076,24.2899702 C19.0816707,24.3876801 19.0873352,24.4877998 19.0935859,24.590593 L19.1380031,25.2415436 L19.2209366,26.2824039 L19.2627067,26.8771852 C19.2746227,27.0686766 19.2844648,27.253538 19.2920333,27.432186 L19.3077183,27.9499066 C19.3542755,30.6994335 18.7274902,31.8708288 16.5304625,33.3361066 L16.3540913,33.4495002 C13.4689161,35.2370648 8.67003319,34.99234 2.01068741,32.569366 L1.15045563,32.2482059 L0.270035195,31.9033125 C0.121617436,31.8438487 -0.027640491,31.7833933 -0.177738073,31.7219447 L-1.08839533,31.3413246 C-1.24184948,31.275898 -1.39614226,31.2094754 -1.55127316,31.1420556 L-2.49211185,30.7255571 C-2.80907447,30.5827275 -3.12938547,30.4358973 -3.45304072,30.2850553 L-4.43403516,29.8204827 C-4.599205,29.7410443 -4.76520988,29.6606002 -4.93204928,29.5791488 L-5.94309592,29.0783435 C-6.28344684,28.9073723 -6.62713177,28.7323611 -6.9741466,28.5532988 L-7.81526888,28.1138253 L-8.47058507,26.0341816 L-8.90846594,24.6233946 L-9.5404489,22.550672 L-10.142638,20.5301689 L-10.5275521,19.2122166 L-11.0801153,17.2789212 L-11.4319581,16.0191804 L-11.7705796,14.7827649 L-12.2537305,12.971928 L-12.5593162,11.7939282 L-12.8516948,10.6393356 L-13.1308703,9.50817349 L-13.3968467,8.40046518 L-13.6496281,7.31623404 L-13.8892186,6.25550342 L-14.1156223,5.21829666 L-14.3288432,4.20463712 L-14.5288853,3.21454814 L-14.7157528,2.24805306 L-14.8894496,1.30517524 L-15.0499799,0.385938012 C-15.1012961,0.0834682964 -15.1504185,-0.215057428 -15.1973478,-0.509635271 L-15.3315572,-1.38152126 L-15.4526123,-2.22969661 L-15.560517,-3.05413798 L-15.6552756,-3.85482202 L-15.7368919,-4.63172538 L-15.8053702,-5.38482472 L-15.8607144,-6.11409669 C-15.8688442,-6.2336551 -15.8764269,-6.35221974 -15.8834625,-6.46979011 L-15.9191133,-7.16327725 L-15.9416402,-7.83287865 C-15.9576065,-8.4905294 -15.9538931,-9.11231652 -15.9305182,-9.69813496 L-15.9005901,-10.27196 C-15.88843,-10.4592358 -15.8740859,-10.6425113 -15.8575585,-10.8217825 L-15.8014274,-11.3475792 C-15.7909808,-11.4332085 -15.7799886,-11.5178358 -15.7684508,-11.6014606 C-15.6434757,-12.5072677 -14.5478635,-13.2246404 -12.6501039,-13.7287283 L-12.2312248,-13.8334735 C-12.1593858,-13.850384 -12.086539,-13.8670201 -12.012692,-13.8833808 L-11.5576704,-13.9782304 L-11.0790143,-14.0664151 L-10.5770921,-14.1478805 L-10.0522722,-14.2225722 L-9.50492309,-14.290436 L-8.93541318,-14.3514175 L-8.34411086,-14.4054623 L-7.73138456,-14.4525161 L-7.09760269,-14.4925245 L-6.44313367,-14.5254334 L-5.76834593,-14.5511882 L-5.07360787,-14.5697346 C-4.95617613,-14.572222 -4.83792848,-14.5744068 -4.7188726,-14.5762878 L-3.99489985,-14.5842078 L-3.25189784,-14.5842078 L-2.10252085,-14.5707504 L-1.31355748,-14.5524401 L-0.506854315,-14.5265955 L0.735656665,-14.4735827 L1.58509753,-14.4286644 L2.88998809,-14.3467865 L3.77986403,-14.282455 L4.68526928,-14.2102631 L6.07168867,-14.0871181 L7.01430535,-13.9950375 L7.97116186,-13.8949064 L8.9418898,-13.7866703 L9.92612074,-13.670275 L11.4269794,-13.4802646 C12.0437421,-13.3991358 12.6620087,-13.3140409 13.2805603,-13.2253316 Z" fill="#1A243C" mask="url(#mask-3)"></path>
                </g>
            </g>
            <path d="M59.9644661,46.0355339 L67.0355339,53.1066017 L64.2071068,55.9350288 L61.9591009,53.6877766 C61.8066965,62.7707357 58.3936366,65.0355339 49.9644661,65.0355339 L49.9644661,61.0355339 C56.1859268,61.0355339 57.8629106,60.488942 57.9599101,53.6988754 L55.7218254,55.9350288 L52.8933983,53.1066017 L57.136039,48.863961 L59.9644661,46.0355339 Z" id="矩形-2" fill="#003296" transform="translate(58.500000, 55.535534) scale(-1, 1) rotate(-90.000000) translate(-58.500000, -55.535534) "></path>
        </g>
    </g>
</svg>