<?xml version="1.0" encoding="UTF-8"?>
<svg width="80px" height="80px" viewBox="0 0 80 80" version="1.1" xmlns="http://www.w3.org/2000/svg" xmlns:xlink="http://www.w3.org/1999/xlink">
    <title>icon/生态完善</title>
    <defs>
        <linearGradient x1="50%" y1="0%" x2="50%" y2="100%" id="linearGradient-1">
            <stop stop-color="#ECECFF" offset="0%"></stop>
            <stop stop-color="#FFFFFF" offset="100%"></stop>
        </linearGradient>
    </defs>
    <g id="icon/生态完善" stroke="none" stroke-width="1" fill="none" fill-rule="evenodd">
        <g id="编组" transform="translate(12.000000, 9.000000)">
            <circle id="椭圆形" fill="url(#linearGradient-1)" cx="28" cy="29" r="20"></circle>
            <path d="M41.3212027,53.6348263 L41.2511337,53.6720978 C37.3062876,55.7952878 32.7938316,57 28,57 C23.4367294,57 19.1284196,55.9083832 15.3219597,53.9720389 C16.3318952,53.0722371 17.1111362,51.9208381 17.5623739,50.6163658 C20.718443,52.1441945 24.2592795,53 28,53 C32.0856314,53 35.9328189,51.9791007 39.3003809,50.1784839 C39.6736869,51.5014674 40.3792656,52.6855849 41.3212027,53.6348263 Z M10,44 C12.209139,44 14,45.790861 14,48 C14,50.209139 12.209139,52 10,52 C7.790861,52 6,50.209139 6,48 C6,45.790861 7.790861,44 10,44 Z M47,44 C49.209139,44 51,45.790861 51,48 C51,50.209139 49.209139,52 47,52 C44.790861,52 43,50.209139 43,48 C43,45.790861 44.790861,44 47,44 Z M20,4 C20,4.78281473 20.1124356,5.53936872 20.3220386,6.25439383 C10.8331526,9.45580758 4,18.4299196 4,29 C4,33.2032098 5.08050476,37.1540542 6.97890492,40.5899239 C5.70557317,41.1097343 4.59600493,41.94823 3.7495379,43.0063576 C1.3649533,38.8865977 0,34.1026998 0,29 C0,16.2323749 8.54551016,5.46066072 20.2289403,2.09244751 C20.0791827,2.70462463 20,3.34306526 20,4 Z M56,29 C56,33.8223179 54.7809278,38.3599062 52.6341508,42.3213976 C51.6855849,41.3792656 50.5014674,40.6736869 49.1780929,40.3000855 C50.9791007,36.9328189 52,33.0856314 52,29 C52,18.4299196 45.1668474,9.45580758 35.6769399,6.25406162 C35.8875644,5.53936872 36,4.78281473 36,4 C36,3.34306526 35.9208173,2.70462463 35.7714755,2.09370163 C47.4544898,5.46066072 56,16.2323749 56,29 Z M28,0 C30.209139,0 32,1.790861 32,4 C32,6.209139 30.209139,8 28,8 C25.790861,8 24,6.209139 24,4 C24,1.790861 25.790861,0 28,0 Z" id="椭圆形" fill="#1A243C"></path>
            <path d="M28,20 C32.9705627,20 37,24.0294373 37,29 C37,33.9705627 32.9705627,38 28,38 C23.0294373,38 19,33.9705627 19,29 C19,24.0294373 23.0294373,20 28,20 Z M28,24 C25.2385763,24 23,26.2385763 23,29 C23,31.7614237 25.2385763,34 28,34 C30.7614237,34 33,31.7614237 33,29 C33,26.2385763 30.7614237,24 28,24 Z M28,27 C29.1045695,27 30,27.8954305 30,29 C30,30.1045695 29.1045695,31 28,31 C26.8954305,31 26,30.1045695 26,29 C26,27.8954305 26.8954305,27 28,27 Z" id="椭圆形" fill="#003296"></path>
        </g>
    </g>
</svg>