<?xml version="1.0" encoding="UTF-8"?>
<svg width="80px" height="80px" viewBox="0 0 80 80" version="1.1" xmlns="http://www.w3.org/2000/svg" xmlns:xlink="http://www.w3.org/1999/xlink">
    <title>icon/隐私保障</title>
    <defs>
        <linearGradient x1="50%" y1="0%" x2="50%" y2="100%" id="linearGradient-1">
            <stop stop-color="#ECECFF" offset="0%"></stop>
            <stop stop-color="#FFFFFF" offset="100%"></stop>
        </linearGradient>
    </defs>
    <g id="icon/隐私保障" stroke="none" stroke-width="1" fill="none" fill-rule="evenodd">
        <g id="01_通用组件/00_icon图标/02_项目图标/03-一级图标/03_UOS图标/01_黑边/生态适配">
            <g id="一站式体验" transform="translate(16.000000, 10.000000)">
                <g id="技术支持" fill="#1A243C">
                    <path d="M24,0 L48,4 L46.929,34 C46.929,45.5426824 38.6172791,54.836556 24,59 C9.38238494,54.1698893 1.0735774,45.1172138 1.0735774,34 L0,4 L24,0 Z M24,4 L4,8 L5.0735774,34 C5.0735774,43.5805839 12.0490516,50.3637967 24,55 C35.9506124,50.3637967 42.9259186,43.4536297 42.9259186,34 L44,8 L24,4 Z" id="形状"></path>
                </g>
                <path d="M24,8 L8,11.2156863 L8.40330643,20.9317339 C8.40413863,20.9303974 8.40497099,20.9290612 8.40580353,20.9277251 L8.85886192,32.1176471 C9.39219526,39.6454052 14.4392413,45.2728561 24,49 C33.5604899,45.2728561 38.6074015,39.6454052 39.1407349,32.1176471 L39.904928,13.627451 L40,11.2156863 L24,8 Z" id="路径" fill="url(#linearGradient-1)"></path>
            </g>
            <polygon id="路径" fill="#003296" transform="translate(40.174942, 37.110069) rotate(-315.000000) translate(-40.174942, -37.110069) " points="41.1614165 28.1100694 45.1614165 28.1100694 45.1614165 46.1100694 35.1884684 46.1100694 35.1884684 42.1140304 41.1614165 42.1140304"></polygon>
        </g>
    </g>
</svg>